<?xml version="1.0" encoding="UTF-8" standalone="no"?>
<svg
   xmlns:dc="http://purl.org/dc/elements/1.1/"
   xmlns:cc="http://creativecommons.org/ns#"
   xmlns:rdf="http://www.w3.org/1999/02/22-rdf-syntax-ns#"
   xmlns:svg="http://www.w3.org/2000/svg"
   xmlns="http://www.w3.org/2000/svg"
   xmlns:xlink="http://www.w3.org/1999/xlink"
   xmlns:sodipodi="http://sodipodi.sourceforge.net/DTD/sodipodi-0.dtd"
   xmlns:inkscape="http://www.inkscape.org/namespaces/inkscape"
   viewBox="0 0 624.9657 191.37629"
   version="1.1"
   id="svg95"
   sodipodi:docname="pigeon_500.svg"
   inkscape:version="0.92.2 (5c3e80d, 2017-08-06)"
   width="624.9657"
   height="191.37628">
  <metadata
     id="metadata99">
    <rdf:RDF>
      <cc:Work
         rdf:about="">
        <dc:format>image/svg+xml</dc:format>
        <dc:type
           rdf:resource="http://purl.org/dc/dcmitype/StillImage" />
        <dc:title></dc:title>
      </cc:Work>
    </rdf:RDF>
  </metadata>
  <sodipodi:namedview
     pagecolor="#ffffff"
     bordercolor="#666666"
     borderopacity="1"
     objecttolerance="10"
     gridtolerance="10"
     guidetolerance="10"
     inkscape:pageopacity="0"
     inkscape:pageshadow="2"
     inkscape:window-width="1920"
     inkscape:window-height="1019"
     id="namedview97"
     showgrid="false"
     showguides="false"
     inkscape:zoom="1.2685914"
     inkscape:cx="-53.364591"
     inkscape:cy="144.24854"
     inkscape:window-x="-9"
     inkscape:window-y="-9"
     inkscape:window-maximized="1"
     inkscape:current-layer="layer2"
     fit-margin-top="0"
     fit-margin-left="0"
     fit-margin-right="0"
     fit-margin-bottom="0" />
  <defs
     id="defs27">
    <linearGradient
       inkscape:collect="always"
       id="linearGradient980">
      <stop
         style="stop-color:#000000;stop-opacity:1;"
         offset="0"
         id="stop976" />
      <stop
         style="stop-color:#000000;stop-opacity:0;"
         offset="1"
         id="stop978" />
    </linearGradient>
    <linearGradient
       id="b"
       x1="397.59"
       x2="629.02002"
       y1="518.96997"
       y2="293.25"
       gradientUnits="userSpaceOnUse"
       gradientTransform="matrix(0.93969262,0.34202015,0.34202015,-0.93969262,-139.27506,791.73153)">
      <stop
         stop-color="#e6e6e6"
         offset="0"
         id="stop2" />
      <stop
         stop-color="#e6e6e6"
         stop-opacity="0"
         offset="1"
         id="stop4" />
    </linearGradient>
    <linearGradient
       id="c"
       x1="181.24001"
       x2="243.87"
       y1="604.03003"
       y2="508.07001"
       gradientUnits="userSpaceOnUse"
       gradientTransform="matrix(0.90630779,0.42261827,0.42261827,-0.90630779,-213.93688,748.71332)">
      <stop
         stop-color="#917c6f"
         offset="0"
         id="stop7" />
      <stop
         stop-color="#917c6f"
         stop-opacity="0"
         offset="1"
         id="stop9" />
    </linearGradient>
    <linearGradient
       id="d"
       x1="-288.89999"
       x2="-242.44"
       y1="-89.110001"
       y2="10.895"
       gradientUnits="userSpaceOnUse">
      <stop
         stop-color="#6c5d53"
         offset="0"
         id="stop12" />
      <stop
         stop-color="#6c5d53"
         stop-opacity="0"
         offset="1"
         id="stop14" />
    </linearGradient>
    <linearGradient
       id="a"
       x1="297.59"
       x2="393.31"
       gradientUnits="userSpaceOnUse"
       gradientTransform="matrix(0.90630779,0.42261827,0.42261827,-0.90630779,-213.93688,748.71332)">
      <stop
         stop-color="#808080"
         offset="0"
         id="stop17" />
      <stop
         stop-color="#808080"
         stop-opacity="0"
         offset="1"
         id="stop19" />
    </linearGradient>
    <linearGradient
       id="e"
       x1="-424.26001"
       x2="-274.76001"
       y1="-254.78"
       y2="-523.47998"
       gradientUnits="userSpaceOnUse">
      <stop
         stop-color="#4d4d4d"
         offset="0"
         id="stop22" />
      <stop
         stop-color="#4d4d4d"
         stop-opacity="0"
         offset="1"
         id="stop24" />
    </linearGradient>
    <radialGradient
       inkscape:collect="always"
       xlink:href="#linearGradient980"
       id="radialGradient982"
       cx="325.02203"
       cy="412.53586"
       fx="325.02203"
       fy="412.53586"
       r="207.49129"
       gradientTransform="matrix(1,0,0,1.0025796,0,-1.0641881)"
       gradientUnits="userSpaceOnUse" />
  </defs>
  <g
     inkscape:groupmode="layer"
     id="layer1"
     inkscape:label="Layer 1"
     transform="translate(-53.475351,-216.76329)">
    <path
       sodipodi:type="spiral"
       style="fill:none;fill-opacity:1;fill-rule:evenodd;stroke:url(#radialGradient982)"
       id="path909"
       sodipodi:cx="325.55795"
       sodipodi:cy="413.07043"
       sodipodi:expansion="0.50999999"
       sodipodi:revolution="49.799999"
       sodipodi:radius="208.17798"
       sodipodi:argument="-18.823048"
       sodipodi:t0="0"
       d="m 325.55795,413.07043 c 10.84257,0.28749 7.06044,11.78764 -0.37079,13.98443 -9.53188,2.81778 -18.31613,-5.43536 -19.54373,-14.51245 -1.67153,-12.35957 8.58161,-22.985 20.56384,-23.96128 14.61576,-1.19085 26.93039,10.94691 27.70997,25.24124 0.90374,16.57117 -12.91463,30.40085 -29.20185,31.02554 -18.32474,0.70284 -33.53351,-14.63436 -34.03144,-32.70214 -0.54923,-19.92955 16.18115,-36.41089 35.8743,-36.80167 21.41857,-0.42502 39.0868,17.59865 39.38474,38.79712 0.32065,22.81407 -18.91483,41.59857 -41.52212,41.8145 -24.13191,0.2305 -43.97326,-20.14885 -44.11563,-44.08514 -0.15099,-25.38395 21.31449,-46.23128 46.51233,-46.30685 26.57925,-0.0797 48.38842,22.42209 48.40271,48.82348 0.015,27.72498 -23.47962,50.45719 -51.03396,50.4148 -28.82693,-0.0443 -52.44776,-24.49336 -52.35256,-53.15605 0.0993,-29.8898 25.46839,-54.36842 55.19968,-54.22373 30.91753,0.15046 56.22616,26.40888 56.03484,57.17306 -0.19847,31.91345 -27.31829,58.02683 -59.08307,57.79138 -32.88034,-0.24371 -59.77543,-28.19954 -59.49806,-60.9355 0.28656,-33.82067 29.05514,-61.47629 62.73534,-61.15895 34.73651,0.32729 63.13316,29.88721 62.7776,64.48687 -0.36614,35.62972 -30.69762,64.74932 -66.19384,64.35711 -36.50192,-0.40332 -66.32766,-31.488 -65.90023,-67.85952 0.43899,-37.35454 32.25978,-67.87076 69.48682,-67.40939 38.18886,0.47329 69.3809,33.01422 68.88676,71.07829 -0.50636,39.00602 -33.75247,70.86012 -72.63624,70.3343 -39.80705,-0.5383 -72.31028,-34.47553 -71.75377,-74.16272 0.5692,-40.59289 35.18431,-73.73304 75.6596,-73.14676 41.36437,0.59915 75.12992,35.87965 74.51472,77.12855 -0.62823,42.12227 -36.56228,76.50229 -78.5711,75.85896 -42.86729,-0.65648 -77.85143,-37.23288 -77.1807,-79.98864 0.68398,-43.60006 37.89208,-79.17847 81.38244,-78.48103 44.3212,0.71076 80.4845,38.54045 79.76099,82.75367 -0.73689,45.03123 -39.1785,81.77048 -84.10341,81.02152 -45.73066,-0.7624 -83.03733,-39.80674 -82.26347,-85.43266 0.78732,-46.41997 40.42558,-84.28589 86.74231,-83.48767 47.09958,0.8117 85.51693,41.03546 84.69487,88.03324 -0.83557,47.76989 -41.63676,86.73119 -89.30624,85.88575 -48.43129,-0.85894 -87.92933,-42.22983 -87.06098,-90.56203 0.88186,-49.08412 42.81501,-89.11199 91.80132,-88.22115 49.72871,0.90434 90.27977,43.39259 89.36685,93.02473 -0.9264,50.36537 -43.9629,91.43321 -94.23288,90.49861 -50.99439,-0.94808 -92.57284,-44.52618 -91.61692,-95.42632 0.96936,-51.61605 45.08269,-93.69917 96.60559,-92.72229 52.23059,0.9903 94.81262,45.6327 93.81512,97.77119 -1.01089,52.83826 -46.1764,95.91367 -98.92359,94.89587 -53.43929,-1.03116 -97.00269,-46.71402 -95.96491,-100.06324 1.05111,-54.03389 47.24576,-98.0801 101.19054,-97.02263 54.62228,1.07076 99.14627,47.77182 98.06939,102.30591 -1.09012,55.20464 -48.29236,100.20153 -103.40971,99.10552 -55.78115,-1.10921 -101.24622,-48.80757 -100.13135,-104.50231 1.12803,-56.35199 49.31761,-102.28065 105.58404,-101.14717 56.91733,1.14659 103.30514,49.82263 102.15329,106.65522 -1.16491,57.47733 -50.32278,104.31996 -107.71617,103.14998 -58.03213,-1.18299 -105.32538,-50.81821 -104.1375,-108.76717 1.20085,-58.58189 51.30904,-106.32167 109.80851,-105.1161 59.12673,1.21848 107.30906,51.79539 106.08603,110.84043 -1.23591,59.66679 -52.2774,108.28781 -111.86322,107.04752 -60.20219,-1.25313 -109.25813,-52.75518 -108.00077,-112.8771 1.27015,-60.73306 53.22883,-110.22024 113.8823,-108.946 61.2595,1.28696 111.17435,53.69847 109.88343,114.87904 -1.30361,61.78163 -54.1642,112.12066 -115.86755,110.81323 -62.29957,-1.32006 -113.05936,-54.62611 -111.7356,-116.84802 1.33635,-62.81339 55.0843,-113.99062 117.82064,-112.6507 63.32321,1.35245 114.91465,55.53885 113.55873,118.78561 -1.3684,63.82911 -55.98986,115.83158 -119.74311,114.45983 -64.33119,-1.38419 -116.7416,-56.43741 -115.35416,-120.69331 1.39982,-64.82954 56.88157,-117.64485 121.63637,-116.24189 65.32423,1.41531 118.54149,57.32243 117.12314,122.57247 -1.43063,65.81534 -57.76005,119.43165 -123.50174,117.99807 -66.30296,-1.44582 -120.31549,-58.19451 -118.86681,-124.42435 1.46088,-66.78715 58.62588,-121.19313 125.34042,-119.72949 67.26801,1.47579 122.06472,59.05422 120.58625,126.25012 -1.49057,67.74557 -59.4796,122.93036 -127.15355,121.43718 -68.21993,-1.50522 -123.79019,-59.90206 -122.28244,-128.05085 1.51976,-68.69114 60.3217,-124.64432 128.94217,-123.12212 69.15926,1.53416 125.49285,60.73854 123.95632,129.82759 -1.54844,69.62436 -61.15265,126.33592 -130.70725,124.78517 -70.0865,-1.56261 -127.17362,-61.56408 -125.60877,-131.58126 1.57666,-70.54571 61.97289,-128.00604 132.44973,-126.4272 71.00209,1.5906 128.8333,62.37913 127.24058,133.31276 -1.60444,71.45565 -62.78283,129.65548 -134.17045,128.049 -71.90647,-1.61817 -130.4727,-63.18407 -128.85254,-135.02292 1.63179,-72.35459 63.58287,-131.28501 135.87024,-129.65129 72.80006,1.64531 132.09253,63.97927 130.44534,136.71251 -1.65873,73.24292 -64.37334,132.89534 -137.54983,131.23478 -73.68323,-1.67206 -133.6935,-64.7651 -132.01968,-138.38228 1.68529,-74.12102 65.1546,-134.48712 139.20995,-132.80012 74.55634,1.69842 135.27627,65.54187 133.57618,140.03291 -1.71147,74.98923 -65.92696,136.06102 -140.85125,134.34793 -75.41974,-1.72441 -136.84145,-66.30989 -135.11545,-141.66505 1.73728,-75.8479 66.69071,-137.61761 142.47438,-135.8788 76.27375,1.75006 138.3896,67.06946 136.63805,143.27933 -1.76275,76.69732 -67.44616,139.15747 -144.07994,137.39326 -77.11866,-1.77536 -139.9213,-67.82085 -138.14452,-144.8763 1.78789,-77.53781 68.19357,-140.68114 145.66849,-138.89187 77.95478,1.80035 141.43705,68.56433 139.63537,146.45655 C 467.163,495.2427 400.04254,559.06219 321.73515,557.24817 242.95279,555.42316 178.7978,487.94803 180.62407,409.22759 c 1.83723,-79.19304 69.66525,-143.68186 148.79668,-141.84341 79.60168,1.84938 144.42268,70.02853 142.57211,149.5689 -1.86145,80.00831 -70.39,145.15987 -150.33731,143.29726 -80.41297,-1.87345 -145.89347,-70.7497 -144.0189,-151.10196 1.88539,-80.81568 71.10766,-146.62356 151.86292,-144.73708 81.21648,1.89724 147.35016,71.46388 145.45186,152.62023 -1.90904,81.61537 -71.81842,148.07333 -153.37395,146.16327 -82.01241,-1.92077 -148.79313,-72.17128 -146.87137,-154.12413 1.93243,-82.4076 72.52249,-149.5096 154.8708,-147.5762 82.801,1.94402 150.22279,72.87206 148.27783,155.61404 -1.95555,83.19259 -73.22005,150.93274 -156.35389,148.97627 -83.58242,-1.96703 -151.63949,-73.56645 -149.67158,-157.09038 1.97844,-83.97053 73.91128,-152.3431 157.82358,-150.36381 84.3569,1.98978 153.04359,74.25458 151.05297,158.55351 -2.00107,84.74159 -74.59635,153.74102 -159.28023,151.73914 -85.1246,-2.0123 -154.43542,-74.93664 -152.42233,-160.00377 2.02347,-85.50598 75.27544,-155.12684 160.72419,-153.10261 85.88572,2.03459 155.81531,75.61279 153.77998,161.44153 -2.04564,86.26384 -75.94869,156.50086 -162.1558,154.4545 -86.6404,-2.05665 -157.18355,-76.28318 -155.12621,-162.86708 2.0676,-87.01538 76.61626,-157.86339 163.57538,-155.79512 87.38881,2.07849 158.54044,76.94795 156.46129,164.28073 -2.08933,87.76073 -77.27828,159.21472 -164.9832,157.12476 -88.13113,-2.10013 -159.88627,-77.60726 -157.78553,-165.68281 2.11086,-88.50004 77.9349,-160.55511 166.37958,-158.44366 88.86748,2.12155 161.2213,78.26122 159.09917,167.07357 -2.13218,89.23346 -78.58624,161.88484 -167.76479,159.7521 -89.59801,-2.14278 -162.54579,-78.90998 -160.40247,-168.45329 2.15331,-89.96115 79.23244,-163.20416 169.1391,-161.05033 90.32287,2.16381 163.85999,79.55365 161.69568,169.82225 -2.17426,90.68321 -79.87362,164.51331 -170.50276,162.33857 -91.04218,-2.18465 -165.16415,-80.19236 -162.97903,-171.18067 2.19501,-91.3998 80.50989,-165.81253 171.85602,-163.61708 91.75608,2.20531 166.45848,80.82622 164.25274,172.52883 -2.21557,92.11103 -81.14136,167.10203 -173.19912,164.88604 -92.46467,-2.22579 -167.74322,-81.45533 -165.51702,-173.86693 2.23596,-92.81701 81.76814,-168.38205 174.53228,-166.1457 93.16808,2.24609 169.01857,82.07981 166.7721,175.19521 C 494.59866,511.13017 414.4645,587.26507 320.9991,585.00853 227.13267,582.74231 150.71436,502.30877 152.98093,408.49464 155.25716,314.2809 235.989,237.5802 330.15063,239.85676 c 94.55982,2.28619 171.54193,83.31528 169.25541,177.82317 -2.29611,94.9047 -83.6214,172.16722 -178.47434,169.87079 -95.24837,-2.30599 -172.79034,-83.92645 -170.48404,-179.12325 2.31584,-95.59085 84.23044,-173.41129 179.7699,-171.09517 95.93216,2.32564 174.03013,84.53339 171.70421,180.41433 -2.3354,96.27231 -84.83529,174.64685 -181.05655,172.31119 -96.6113,-2.34514 -175.26149,-85.13616 -172.91611,-181.69659 2.35482,-96.94916 85.43602,-175.87407 182.33447,-173.51901 97.28589,2.36447 176.48461,85.73486 174.11991,182.97021 -2.37409,97.6215 -86.03272,177.09312 -183.60385,174.71881 -97.95601,-2.38366 -177.69962,-86.32957 -175.31575,-184.23538 2.39321,-98.28942 86.62546,-178.30415 184.86484,-175.91075 98.62175,2.40272 178.90671,86.92038 176.50382,185.49226 C 504.44036,516.83038 419.63821,597.3847 320.73492,594.97234 221.45171,592.55072 140.62889,507.465 143.05067,408.23135 145.4817,308.619 230.85009,227.52853 330.41304,229.95971 430.35349,232.4001 511.71076,318.05026 509.27023,417.94147 506.8205,518.209 420.88945,599.83222 320.67102,597.38237 220.07744,594.92334 138.18909,508.71229 140.64823,408.16765 c 2.4683,-100.91861 88.95848,-183.07128 189.82831,-180.60287 101.24264,2.47752 183.6588,89.24598 181.18117,190.44 -2.48672,101.56568 -89.5326,184.24453 -191.0498,181.7577 C 218.72017,597.26658 135.77943,509.94414 138.27542,408.10473 140.78045,305.89591 228.37863,222.69408 330.53926,225.19919 433.0682,227.71334 516.53034,315.58641 514.01613,418.06731 511.49291,520.9154 423.34576,604.63708 320.54556,602.1138 217.37926,599.58153 133.39882,511.16113 135.93114,408.04258 138.47242,304.559 227.16528,220.32056 330.60124,222.86189 434.40115,225.41215 518.89683,314.37666 516.34653,418.1291 513.7873,522.24442 424.55195,606.99659 320.48396,604.43734 216.05413,601.8692 131.04621,512.36377 133.61438,407.98115 136.19142,303.23773 225.96613,217.9748 330.66249,220.55186 c 105.0561,2.58591 190.57331,92.62913 187.9874,197.63831 -2.59475,105.36791 -92.90572,191.13867 -198.22683,188.54393 -105.67882,-2.60356 -191.70243,-93.18152 -189.09888,-198.81368 2.61234,-105.98886 93.45653,-192.26459 199.39886,-189.65226 106.29803,2.62109 192.82518,93.73076 190.20411,199.98239 -2.62982,106.60634 -94.00423,193.38421 -200.5643,190.75442 -106.9138,-2.63852 -193.9417,-94.27694 -191.30321,-201.14459 2.64719,-107.2204 94.54889,-194.49764 201.72327,-191.85049 107.52617,2.65584 195.05207,94.82009 192.39628,202.30037 C 520.51473,526.14137 428.08864,613.91524 320.3033,611.25083 212.16809,608.57778 124.14691,515.89057 126.8199,407.801 129.50152,299.36249 222.44915,211.09468 330.84214,213.77622 439.58312,216.46638 528.09692,309.67375 525.40683,418.36933 522.70816,527.41197 429.24176,616.1711 320.24439,613.47251 210.90088,610.76534 121.89707,517.04061 124.60415,407.74225 127.31978,298.09865 221.30218,208.85082 330.90073,211.56635 440.84361,214.29042 530.33484,308.5298 527.61087,418.42777 524.87839,528.66916 430.3827,618.40314 320.18611,615.67076 209.64698,612.92989 119.67087,518.17855 122.41163,407.68411 125.16087,296.84802 220.16719,206.6304 330.95871,209.37953 c 111.1323,2.75758 201.5908,98.01823 198.83334,209.10607 -2.7659,111.42774 -98.28023,202.12651 -209.66363,199.36074 -111.72243,-2.77419 -202.66087,-98.54156 -199.8868,-210.21976 2.78246,-112.01639 98.80222,-203.19388 210.77448,-200.41155 112.3096,2.79071 203.72555,99.06222 200.93498,211.32781 -2.79894,112.60208 -99.32158,204.25588 -211.87976,201.45709 -112.89382,-2.80714 -204.7849,-99.58027 -201.9779,-212.43031 2.81531,-113.18486 99.83833,-205.31261 212.9795,-202.49744 21.79342,0.54226 43.48059,4.53338 64.03976,11.78355"
       transform="matrix(1.3548743,0,0,0.09937901,-105.76406,346.4687)" />
    <path
       style="fill:#61544b;fill-opacity:1;stroke-width:0.55739522"
       d=""
       id="path942"
       inkscape:connector-curvature="0" />
    <path
       style="fill:#61544b;fill-opacity:1;stroke-width:0.55739522"
       d=""
       id="path944"
       inkscape:connector-curvature="0" />
    <path
       style="fill:#61544b;fill-opacity:1;stroke-width:0.55739522"
       d=""
       id="path946"
       inkscape:connector-curvature="0" />
    <path
       style="fill:#61544b;fill-opacity:1;stroke-width:0.55739522"
       d=""
       id="path948"
       inkscape:connector-curvature="0" />
    <path
       style="fill:#61544b;fill-opacity:1;stroke-width:0.55739522"
       d=""
       id="path950"
       inkscape:connector-curvature="0" />
    <path
       style="fill:#61544b;fill-opacity:1;stroke-width:0.55739522"
       d=""
       id="path952"
       inkscape:connector-curvature="0" />
    <path
       style="fill:#61544b;fill-opacity:1;stroke-width:0.55739522"
       d=""
       id="path954"
       inkscape:connector-curvature="0" />
    <path
       style="fill:#61544b;fill-opacity:1;stroke-width:0.55739522"
       d=""
       id="path956"
       inkscape:connector-curvature="0" />
  </g>
  <g
     inkscape:groupmode="layer"
     id="layer2"
     inkscape:label="Layer 2"
     transform="translate(-53.475351,-216.76329)">
    <path
       d="m 115.73345,315.2896 c 13.13527,-2.16416 74.96014,-34.4778 90.22479,-48.37799 13.8742,-12.63316 29.86947,-24.8521 45.35184,-31.35633 53.87234,-22.72474 88.44802,-26.51116 141.78421,-2.08255 13.61973,6.18367 48.44814,30.87436 83.78475,60.23226 31.68283,26.32302 41.07305,12.84887 56.85354,18.56562 63.09186,22.85598 88.73865,31.05518 108.06394,46.80538 -91.20304,7.74231 -311.33185,55.51699 -393.10587,32.85448 -31.76285,-11.3792 -64.32973,-12.46147 -77.71284,-10.79752 -7.04168,0.87528 -23.83707,1.53264 -35.69874,8.98929 -14.0465,8.82891 -32.94673,11.8449 -47.372698,-1.27722 -13.93105,-12.67143 -22.51686,-24.92976 -20.7549,-38.53041 1.60741,-12.40933 9.59799,-16.17188 17.83721,-22.42688 18.494098,-14.03946 15.793448,-10.29497 30.742968,-12.59667 z"
       id="path35"
       inkscape:connector-curvature="0"
       style="fill:#b3b3b3" />
    <path
       d="m 238.36425,391.24172 c -36.53117,-23.4882 -33.04705,-64.69246 -36.84919,-103.11742 -0.36556,-1.6286 -0.783,-7.39168 -4.47341,-9.0673 -0.18946,-0.0862 -0.2257,-1.98531 -3.76426,-1.03743 3.3055,-2.0917 7.19839,-5.9109 10.53326,-8.139 3.74613,-1.2327 6.53008,6.7887 10.34674,14.62949 7.42389,17.09736 3.55031,38.62424 5.56495,56.63843 4.36201,15.98294 8.57551,36.86294 18.64202,50.09386 z"
       id="path37"
       inkscape:connector-curvature="0"
       style="fill:#6c5d53" />
    <path
       d="m 472.02983,381.69897 c 74.5732,0.22178 173.06896,16.05759 173.06896,16.05759 0,0 43.51232,4.68616 31.12218,-2.20587 -12.39016,-6.89204 -48.33727,-15.85256 -64.26576,-19.93636 -15.92849,-4.08378 -107.65853,-20.10849 -107.65853,-20.10849 l -32.27518,26.18968 z"
       id="path41"
       inkscape:connector-curvature="0"
       style="fill:#b3b3b3" />
    <path
       d="m 518.89304,360.08961 c 63.89541,6.38897 129.31989,19.06299 129.31989,19.06299 0,0 17.08631,-3.17881 0.24191,-7.6893 -16.84443,-4.51034 -103.20507,-22.48942 -103.20507,-22.48942 l -26.35976,11.11419 z"
       id="path43"
       inkscape:connector-curvature="0"
       style="fill:#999999" />
    <path
       d="m 275.15739,330.84222 c 22.51484,-4.34049 34.07333,-8.84467 58.67326,2.62646 24.5999,11.47111 48.91509,33.69199 48.91509,33.69199 0,0 -24.34693,-39.05458 -45.66322,-44.04696 -21.31631,-4.99242 -65.80952,5.91707 -61.92507,7.72843 z"
       id="path49"
       style="fill:url(#a)"
       inkscape:connector-curvature="0" />
    <path
       d="m 332.64916,255.58573 c 17.18994,-12.14444 33.32304,-36.35766 60.67495,-25.06956 27.3519,11.28808 32.56536,24.51302 32.56536,24.51302 0,0 -25.63615,8.3232 -45.89424,8.57548 -20.25813,0.25226 -47.34597,-8.01805 -47.34597,-8.01805 z"
       id="path51"
       inkscape:connector-curvature="0"
       style="fill:#b3b3b3;fill-rule:evenodd" />
    <path
       d="m 379.89048,239.19601 c 11.07328,0.74745 17.41831,-2.28273 21.25797,-12.00043 3.80081,-9.61685 20.22352,0.25869 30.36577,-0.62864 11.52895,-1.00864 13.67292,7.74328 19.34638,12.50343 10.14502,8.51272 16.37398,10.73576 19.17028,10.49112 8.82401,-0.77199 -18.27811,1.51943 -26.51621,-1.73614 -1.28431,-0.50757 -22.30888,-16.85481 -6.38999,-3.49701 14.76389,12.38839 -4.14092,4.08657 -12.25196,-0.95608 -14.17395,-8.8122 -12.37055,-2.98859 -28.17636,2.46511 -6.34553,2.18949 -10.8368,-3.73531 -16.80482,-6.64184 z"
       id="path53"
       inkscape:connector-curvature="0"
       style="fill:#e9afaf;fill-rule:evenodd" />
    <g
       transform="matrix(0.90630779,0.42261827,0.42261827,-0.90630779,386.91386,426.82544)"
       id="g59">
      <path
         d="m -299.26,-17.64 c 11.469,28.79 56.873,68.691 58.183,70.691 15.082,23.037 37.572,-85.821 93.895,-81.272 -30.359,-4.6198 -47.615,-12.547 -68.11,-21.993 -6.4175,-2.9576 -14.945,-8.6286 -28.22,-24.205 -10.742,-12.604 -25.141,-23.816 -44.188,-19.549 -17.395,3.8964 -33.197,14.572 -37.348,27.642 -3.7876,11.926 3.3693,18.995 8.193,28.146 10.828,20.54 5.0186,12.138 17.595,20.541 z"
         id="path55"
         inkscape:connector-curvature="0"
         style="fill:#483e37" />
      <path
         d="m -299.26,-17.64 c 11.469,28.79 56.873,68.691 58.183,70.691 15.082,23.037 37.572,-85.821 93.895,-81.272 -30.359,-4.6198 -47.615,-12.547 -68.11,-21.993 -6.4175,-2.9576 -14.945,-8.6286 -28.22,-24.205 -10.742,-12.604 -25.141,-23.816 -44.188,-19.549 -17.395,3.8964 -33.197,14.572 -37.348,27.642 -3.7876,11.926 3.3693,18.995 8.193,28.146 10.828,20.54 5.0186,12.138 17.595,20.541 z"
         id="path57"
         style="fill:url(#d)"
         inkscape:connector-curvature="0" />
    </g>
    <g
       transform="matrix(0.90630779,0.42261827,0.42261827,-0.90630779,343.17461,176.2483)"
       id="g89">
      <g
         transform="matrix(-1.0675,0.4978,0.51504,1.1045,-1013.1,-616.94)"
         id="g67"
         style="fill-rule:evenodd">
        <path
           d="m -546.43,568.08 c 0,4.9311 -4.637,8.9286 -10.357,8.9286 -5.72,0 -10.357,-3.9975 -10.357,-8.9286 0,-4.9311 4.637,-8.9286 10.357,-8.9286 5.72,0 10.357,3.9974 10.357,8.9286 z"
           id="path61"
           inkscape:connector-curvature="0"
           style="fill:#ffffff" />
        <path
           transform="matrix(1.1454,0,0,1.1084,79.564,-62.406)"
           d="m -547.5,569.68 c 0,2.86 -2.2786,5.1786 -5.0893,5.1786 -2.8107,0 -5.0893,-2.3185 -5.0893,-5.1786 0,-2.8601 2.2786,-5.1786 5.0893,-5.1786 2.8107,0 5.0893,2.3185 5.0893,5.1786 z"
           id="path63"
           inkscape:connector-curvature="0" />
        <path
           d="m -551.96,566.38 c 0,2.4162 -2.2786,4.375 -5.0893,4.375 -2.8107,0 -5.0893,-1.9588 -5.0893,-4.375 0,-2.4162 2.2786,-4.375 5.0893,-4.375 2.8107,0 5.0893,1.9588 5.0893,4.375 z"
           id="path65"
           inkscape:connector-curvature="0"
           style="fill:#ffffff" />
      </g>
      <path
         transform="matrix(-1.3361,0.62303,0.51647,1.1076,-1145.4,-560.26)"
         d="m -511.07,569.86 c 0,4.3394 -1.6789,7.8572 -3.75,7.8572 -2.0711,0 -3.75,-3.5178 -3.75,-7.8572 0,-4.3394 1.6789,-7.8571 3.75,-7.8571 2.0711,0 3.75,3.5178 3.75,7.8571 z"
         id="path69"
         inkscape:connector-curvature="0"
         style="fill:#ffffff;fill-rule:evenodd" />
      <path
         transform="matrix(-1.319,0.61505,0.58469,1.2539,-1173.6,-646.98)"
         d="m -512.5,570.31 c 0,2.1204 -0.99937,3.8393 -2.2322,3.8393 -1.23283,0 -2.2321,-1.7189 -2.2321,-3.8393 0,-2.1204 0.99936,-3.8393 2.2321,-3.8393 1.23274,0 2.2322,1.7189 2.2322,3.8393 z"
         id="path71"
         inkscape:connector-curvature="0"
         style="fill-rule:evenodd" />
      <g
         transform="matrix(-1.3361,0.62303,0.51647,1.1076,-1144.9,-558.06)"
         id="g75">
        <path
           d="m -512.68,568.34 c 0,1.8245 -0.79949,3.3036 -1.7857,3.3036 -0.98621,0 -1.7857,-1.4791 -1.7857,-3.3036 0,-1.8245 0.79949,-3.3036 1.7857,-3.3036 0.98621,0 1.7857,1.4791 1.7857,3.3036 z"
           id="path73"
           inkscape:connector-curvature="0"
           style="fill:#ffffff;fill-rule:evenodd" />
      </g>
      <path
         d="m -146.78,-227.94 c 5.8851,1.6175 20.904,-9.5494 18.564,-14.566 -0.18401,-0.39463 0.31813,-0.50733 0.0592,-0.17175 -0.9075,1.1763 -2.6633,2.0286 -3.8518,3.0933 -3.0201,2.7055 -8.6144,4.423 -11.002,6.2835 -1.5337,1.195 -3.2688,3.6213 -3.7696,5.361 z"
         id="path77"
         inkscape:connector-curvature="0"
         style="fill:#aa4400" />
      <path
         d="m -157.35,-244.63 c -2.0257,-7.4686 11.319,-14.153 16.035,-12.522 0.84345,0.29186 4.2882,0.91949 3.44,1.9991 -1.5046,1.9154 -8.8127,2.597 -11.708,3.874 -3.5952,1.5858 -6.0533,5.0664 -7.8262,6.8202"
         id="path79"
         inkscape:connector-curvature="0"
         style="fill:#ffffff" />
      <path
         d="m -147.28,-227.22 c 6.0654,-1.6302 11.284,-2.8074 14.242,-6.6412 1.6903,-1.2078 4.7211,-4.4055 5.074,-6.4427 1.6638,3.568 -2.2899,11.365 -3.4191,14.64 -3.1398,5.4422 -3.9865,10.571 -2.231,15.92 -2.0231,0.96723 -2.9092,-0.14475 -5.8246,-3.195 -5.1148,-8.69 -5.8793,-8.4751 -7.8413,-14.281 z"
         id="path81"
         inkscape:connector-curvature="0"
         style="fill:#483737" />
      <path
         d="m -144.02,-254.88 c -10.212,2.8658 -11.66,6.0281 -15.215,14.878 -0.26566,3.9746 0.60882,6.9799 1.7843,10.698 1.7504,4.9489 3.3002,7.9736 6.4964,7.0597 5.0038,-1.4307 1.6585,-4.809 6.1579,-9.5015 3.5803,-3.7339 6.2982,-3.2251 11.231,-6.3902 4.9328,-3.1651 6.3143,-4.3857 6.0233,-7.9974 0.0765,-9.4549 -8.939,-9.53 -16.478,-8.7468 z"
         id="path83"
         inkscape:connector-curvature="0"
         style="fill:#ff7f2a" />
      <path
         d="m -141.66,-248.92 c 1.2093,-0.6355 1.7675,-0.0533 2.2686,0.38342 2.3897,2.0827 -3.6458,7.4192 -4.0698,6.5099 -0.32975,-0.70716 1.8997,-3.5592 2.1042,-4.152 0.0768,-0.22282 -3.735,-0.18417 -0.30304,-2.7413 z"
         id="path85"
         inkscape:connector-curvature="0"
         style="fill:#aa4400" />
      <path
         d="m -154.06,-248.11 c -2.5399,3.4265 -3.3166,7.2538 -2.6538,11.633 0.61023,4.0319 2.9935,10.222 2.9935,10.222 0.12482,-6.0157 -0.0633,-12.444 3.5371,-17.344 3.4908,-4.5247 4.2876,-7.7066 4.2876,-7.7066 0,0 -3.6101,-0.55873 -8.1644,3.1956 z"
         id="path87"
         inkscape:connector-curvature="0"
         style="fill:#ffccaa" />
    </g>
    <path
       d="m 238.36425,391.24172 c -36.53117,-23.4882 -33.04705,-64.69246 -36.84919,-103.11742 -0.36556,-1.6286 -0.783,-7.39168 -4.47341,-9.0673 -0.18946,-0.0862 -0.2257,-1.98531 -3.76426,-1.03743 3.3055,-2.0917 7.19839,-5.9109 10.53326,-8.139 3.74613,-1.2327 6.53008,6.7887 10.34674,14.62949 7.42389,17.09736 3.55031,38.62424 5.56495,56.63843 4.36201,15.98294 8.57551,36.86294 18.64202,50.09386 z"
       id="path91"
       style="fill:url(#c)"
       inkscape:connector-curvature="0" />
    <path
       style="fill:#66584e;fill-opacity:1;stroke-width:0.27869761"
       d="m 106.37435,349.45505 c -4.16064,-0.83953 -9.365574,-7.11558 -10.366984,-12.5004 l -0.31811,-1.71052 -1.39707,1.41928 c -2.49779,2.53749 -6.214464,4.41354 -8.741694,4.41251 -1.47797,-6.1e-4 -2.91364,-0.79864 -3.5089,-1.95045 -1.90749,-3.69092 3.48397,-10.805 9.402854,-12.40716 2.08733,-0.56502 3.79904,-0.43785 4.87266,0.36198 0.70334,0.52399 0.72508,0.63801 0.89366,4.6886 0.24814,5.96214 1.00884,7.91235 4.601034,11.79558 2.01971,2.18334 3.8899,3.54188 6.73754,4.89428 0.94973,0.45104 1.72678,0.91843 1.72678,1.03865 0,0.26176 -2.53076,0.23429 -3.90177,-0.0423 z M 92.674066,336.91212 c 1.22575,-0.63287 2.87334,-2.3164 3.51642,-3.59313 0.80276,-1.59376 0.58701,-3.41615 -0.47152,-3.98266 -0.72101,-0.38587 -2.80624,-0.36771 -3.5511,0.0309 -0.54958,0.29413 -0.54959,0.2974 -7.2e-4,0.84628 0.73466,0.73466 0.69444,1.51143 -0.15314,2.95772 -0.77877,1.32889 -2.66801,2.60984 -3.849164,2.60984 -0.40806,0 -0.74193,0.10356 -0.74193,0.23012 0,0.29034 1.11756,1.31713 1.672184,1.53638 0.65937,0.26065 2.46391,-0.0598 3.57897,-0.63547 z"
       id="path984"
       inkscape:connector-curvature="0" />
    <path
       style="fill:#66584e;fill-opacity:1;stroke-width:0.27869761"
       d="m 114.47964,375.76757 c -4.84378,-1.35983 -8.87181,-5.97895 -9.45769,-10.84556 -0.5943,-4.9365 1.55324,-9.03634 5.73652,-10.95151 5.12308,-2.34542 11.82684,0.2405 15.03042,5.79785 1.71651,2.97768 2.10524,7.07914 0.95444,10.07005 -1.7977,4.67217 -7.28728,7.32624 -12.26369,5.92917 z m -5.03961,-11.3952 c 0,-1.68756 2.63172,-3.78719 4.74694,-3.78719 1.62909,0 3.89934,1.32514 4.86813,2.84152 0.45985,0.71977 0.93628,1.31549 1.05874,1.32381 0.12245,0.008 0.46459,-0.51787 0.76029,-1.16933 1.05868,-2.33232 0.50553,-5.85075 -1.20926,-7.69177 -1.86786,-2.00534 -5.58696,-2.66887 -8.11086,-1.44707 -1.54716,0.74896 -3.40051,2.78683 -3.78131,4.15777 -0.59464,2.14075 -0.19393,5.06964 0.86877,6.35012 0.40781,0.49138 0.79856,0.20863 0.79856,-0.57786 z"
       id="path986"
       inkscape:connector-curvature="0" />
    <path
       style="fill:#66584e;fill-opacity:1;stroke-width:0.04926724"
       d="m 116.13438,376.18619 c -4.28328,-0.51973 -8.09482,-3.29684 -10.07573,-7.34126 -0.60282,-1.23078 -0.9714,-2.37483 -1.19045,-3.69505 -0.12676,-0.76397 -0.1264,-2.98402 5.9e-4,-3.67041 0.55689,-3.00992 2.01019,-5.29231 4.36818,-6.86015 3.55263,-2.36218 8.44678,-2.17238 12.39071,0.4805 1.54754,1.04096 2.70156,2.20412 3.76092,3.7907 3.03428,4.54437 2.87871,10.33548 -0.3773,14.04468 -1.43323,1.63272 -3.53281,2.79634 -5.72382,3.17224 -0.9485,0.16273 -2.20283,0.19406 -3.1531,0.0787 z m 2.23085,-0.0987 c 1.71184,-0.20025 3.27044,-0.76624 4.67583,-1.69799 2.20944,-1.46483 3.64741,-3.56544 4.14965,-6.06192 0.37759,-1.87681 0.27419,-3.99619 -0.29071,-5.95879 -1.37017,-4.76035 -5.80859,-8.56848 -10.71394,-9.19248 -0.5127,-0.0652 -0.88626,-0.0785 -1.65045,-0.0586 -1.59654,0.0415 -2.64838,0.29425 -4.04233,0.97118 -1.10297,0.53563 -1.74143,0.98401 -2.62885,1.8462 -1.59348,1.54819 -2.53648,3.48178 -2.87212,5.88922 -0.0845,0.60635 -0.0836,2.43948 0.002,3.05456 0.19771,1.4278 0.53107,2.52023 1.16514,3.81822 1.30964,2.68094 3.58482,4.9657 6.25566,6.282 1.98303,0.97732 3.94574,1.34291 5.95053,1.1084 z"
       id="path988"
       inkscape:connector-curvature="0" />
    <path
       style="fill:#66584e;fill-opacity:1;stroke-width:0.01231681"
       d="m 108.15174,371.98636 c -1.2733,-1.39182 -2.27841,-3.13297 -2.85315,-4.94248 -0.12457,-0.39218 -0.30509,-1.0779 -0.30318,-1.15163 3.5e-4,-0.0135 0.0384,0.12502 0.0846,0.30792 0.17194,0.68103 0.33308,1.17196 0.58612,1.78565 0.60201,1.46003 1.44232,2.80874 2.45451,3.93954 0.0838,0.0937 0.14994,0.17282 0.14688,0.17588 -0.003,0.003 -0.0552,-0.0486 -0.11577,-0.11488 z"
       id="path990"
       inkscape:connector-curvature="0" />
    <path
       style="fill:#66584e;fill-opacity:1;stroke-width:0.01231681"
       d="m 116.79411,376.23666 c -2.03094,-0.1149 -4.13167,-0.81528 -5.9367,-1.97929 -0.80313,-0.51791 -1.46359,-1.0529 -2.16883,-1.75681 -0.59199,-0.59087 -0.94633,-1.00282 -1.40933,-1.63847 -0.44086,-0.60524 -0.81011,-1.21631 -1.1685,-1.93374 -0.53384,-1.06863 -0.88089,-2.04502 -1.11467,-3.13607 -0.11205,-0.52292 -0.15786,-0.84313 -0.18655,-1.30414 -0.0148,-0.23781 -0.0354,-1.22912 -0.0271,-1.30866 l 0.005,-0.0523 h 0.0662 0.0662 l 0.004,0.28637 0.004,0.28636 0.003,-0.28636 0.003,-0.28637 h 1.42591 1.42591 l 0.0292,0.10777 c 0.22098,0.81575 0.66769,1.65655 1.00173,1.8855 0.15739,0.10787 0.32823,0.0972 0.43756,-0.0273 0.11497,-0.13093 0.17126,-0.33082 0.18823,-0.66832 0.0167,-0.33306 0.0485,-0.5008 0.14288,-0.75425 0.0482,-0.12947 0.14687,-0.33611 0.22094,-0.46273 l 0.0472,-0.0806 h 4.49269 4.49268 l 0.0476,0.0647 c 0.0262,0.0356 0.12699,0.18383 0.22401,0.32948 0.51251,0.76937 0.89043,1.23168 1.00683,1.23168 0.15601,0 0.6591,-0.84611 0.90994,-1.53037 l 0.035,-0.0954 h 1.79547 1.79547 v 4.96101 4.96102 l -0.16956,0.16096 c -0.80253,0.76184 -1.59998,1.32188 -2.57713,1.80989 -2.2466,1.122 -4.82188,1.4082 -7.19914,0.80006 -2.7747,-0.70982 -5.42433,-2.55962 -7.287,-5.08731 -0.92948,-1.26134 -1.63215,-2.67186 -2.04322,-4.1015 -0.23925,-0.83208 -0.37595,-1.67404 -0.42996,-2.64811 l -0.01,-0.17244 -0.002,0.14165 c -0.004,0.33384 0.0301,0.77215 0.0919,1.17625 0.18502,1.2091 0.48715,2.20183 1.01398,3.3317 0.45074,0.96669 1.03748,1.90844 1.71894,2.75896 0.64746,0.8081 1.40829,1.56693 2.21698,2.21117 0.77624,0.6184 1.55385,1.11376 2.42641,1.54572 1.9331,0.95698 3.83267,1.32773 5.80121,1.13226 2.35825,-0.23416 4.51308,-1.20933 6.23847,-2.82323 l 0.20323,-0.1901 0.004,0.1052 0.004,0.10519 -0.11444,0.11573 c -0.063,0.0637 -0.1865,0.18055 -0.27456,0.25976 -1.03497,0.93092 -2.26622,1.63973 -3.61499,2.08107 -0.77042,0.25209 -1.4707,0.38757 -2.37098,0.45869 -0.16481,0.013 -1.31701,0.0254 -1.48418,0.0159 z"
       id="path992"
       inkscape:connector-curvature="0" />
    <path
       style="fill:#66584e;fill-opacity:1;stroke-width:0.01231681"
       d="m 116.77563,376.23607 c -0.83183,-0.0429 -1.82072,-0.22282 -2.72201,-0.49537 -1.67471,-0.50642 -3.28207,-1.39224 -4.63303,-2.55326 -0.36249,-0.31152 -0.89296,-0.82736 -1.20704,-1.17373 -1.04949,-1.15741 -1.88299,-2.47388 -2.51082,-3.96572 -0.31799,-0.75562 -0.56422,-1.55434 -0.73173,-2.37367 -0.0974,-0.4763 -0.13305,-0.73725 -0.16131,-1.18002 -0.0167,-0.26101 -0.0389,-1.27462 -0.0292,-1.32714 0.007,-0.0392 0.009,-0.04 0.0733,-0.04 h 0.0659 l 0.004,0.0954 0.004,0.0955 0.002,-0.0955 0.002,-0.0954 h 1.42591 1.42591 l 0.0295,0.10777 c 0.23744,0.86813 0.72044,1.74253 1.06019,1.91932 0.0958,0.0499 0.2149,0.0508 0.29741,0.002 0.16462,-0.0968 0.24679,-0.32201 0.26954,-0.73881 0.007,-0.12229 0.018,-0.26177 0.0253,-0.30996 0.0394,-0.2624 0.15079,-0.5674 0.3098,-0.84818 l 0.075,-0.13241 h 4.4935 4.4935 l 0.0656,0.0893 c 0.0361,0.0491 0.14083,0.20292 0.2328,0.34179 0.32673,0.49336 0.61239,0.87209 0.79845,1.05855 0.1615,0.16185 0.18892,0.16782 0.29165,0.0635 0.2168,-0.22025 0.62143,-0.95929 0.79808,-1.45765 l 0.0338,-0.0954 h 1.79666 1.79666 v 4.96295 4.96294 l -0.21247,0.19939 c -0.58072,0.54499 -1.14016,0.97066 -1.78467,1.35795 -1.7166,1.0315 -3.66079,1.55585 -5.63313,1.51925 -0.95396,-0.0177 -1.76544,-0.14145 -2.67891,-0.40852 -3.3802,-0.98829 -6.4704,-3.63601 -8.13998,-6.97443 -0.40034,-0.80049 -0.71298,-1.63611 -0.91821,-2.45411 -0.18025,-0.71845 -0.27279,-1.32635 -0.33375,-2.19239 l -0.0169,-0.24018 0.006,0.25249 c 0.0108,0.46526 0.0345,0.70227 0.12238,1.22612 0.18975,1.13092 0.48466,2.06535 0.99689,3.15867 1.29946,2.77359 3.62794,5.14673 6.36845,6.49057 1.36584,0.66976 2.6285,1.02752 4.04607,1.1464 0.25931,0.0217 0.92989,0.0289 1.21937,0.0129 1.86208,-0.10241 3.5911,-0.64671 5.13509,-1.61652 0.597,-0.37499 1.1153,-0.77866 1.68757,-1.31435 l 0.13634,-0.12762 v 0.10932 0.10932 l -0.1632,0.16128 c -0.85406,0.84406 -2.01846,1.59181 -3.22666,2.0721 -1.05086,0.41773 -2.01278,0.62563 -3.19964,0.69151 -0.1934,0.0107 -1.10082,0.0135 -1.28711,0.004 z"
       id="path994"
       inkscape:connector-curvature="0" />
    <path
       style="fill:#66584e;fill-opacity:1;stroke-width:0.0174186"
       d="m 85.256572,341.15281 c -0.67539,-0.0286 -1.2782,-0.17345 -1.82895,-0.43956 -0.76868,-0.3714 -1.31825,-0.94467 -1.6378,-1.70843 -0.66487,-1.58911 -0.20663,-3.83622 1.24504,-6.10534 0.34042,-0.53212 0.83483,-1.18591 1.28475,-1.69889 l 0.20538,-0.23418 0.12735,-2e-4 0.12734,-2e-4 -0.16043,0.17854 c -0.8073,0.8984 -1.53135,1.93348 -2.03787,2.91326 -0.47996,0.92842 -0.77844,1.82659 -0.89721,2.69989 -0.0377,0.27703 -0.0435,0.92848 -0.0104,1.17575 0.1084,0.81164 0.41007,1.44227 0.94167,1.96852 0.62986,0.6235 1.45502,1.01449 2.43215,1.15245 0.23077,0.0326 0.85232,0.0275 1.15834,-0.01 2.25251,-0.27223 4.988344,-1.62838 7.275504,-3.60646 0.14193,-0.12275 0.69436,-0.66059 1.22763,-1.1952 0.53328,-0.53462 0.97396,-0.96767 0.97929,-0.96234 0.0128,0.0128 -0.0277,0.0686 -0.27366,0.37691 -0.64911,0.81368 -1.54695,1.71446 -2.41551,2.42342 -1.38945,1.13414 -2.9909,2.04203 -4.511424,2.55763 -1.15984,0.39329 -2.19422,0.55782 -3.23115,0.51394 z"
       id="path998"
       inkscape:connector-curvature="0" />
    <path
       style="fill:#66584e;fill-opacity:1;stroke-width:0.0174186"
       d="m 108.83266,349.93233 c -0.32708,-0.0246 -0.838,-0.0957 -1.54155,-0.2145 -0.36404,-0.0615 -0.77948,-0.12823 -0.92318,-0.14832 -0.59974,-0.0838 -1.12925,-0.25757 -1.78601,-0.58606 -1.60764,-0.80408 -3.39033,-2.33776 -4.947894,-4.25674 -2.22452,-2.74074 -3.66176,-5.89427 -3.84625,-8.43931 -0.0226,-0.31206 -0.0374,-0.63213 -0.0281,-0.60966 0.004,0.01 0.0629,0.3192 0.13099,0.68804 0.15432,0.8361 0.22046,1.14607 0.33117,1.55222 0.69751,2.55878 2.22558,5.26503 4.277264,7.57513 0.28504,0.32094 0.98779,1.03381 1.30511,1.32392 1.65486,1.51288 3.27321,2.42333 4.76399,2.68011 1.43466,0.24711 3.71016,0.2496 3.71016,0.004 0,-0.0789 -0.25219,-0.26307 -0.74029,-0.5405 -0.25911,-0.14727 -0.48001,-0.25947 -1.50671,-0.7653 -0.8259,-0.40691 -1.61465,-0.85053 -2.30219,-1.29483 -0.10455,-0.0676 -0.18633,-0.12663 -0.18172,-0.13123 0.005,-0.005 0.19109,0.0972 0.41441,0.22624 1.50312,0.86857 2.8859,1.57923 4.12867,2.12186 l 0.29118,0.12714 0.0116,0.0773 c 0.006,0.0433 0.002,0.11862 -0.009,0.17135 -0.081,0.36201 -0.6046,0.51022 -1.55121,0.43911 z"
       id="path1000"
       inkscape:connector-curvature="0" />
    <path
       style="fill:#66584e;fill-opacity:1;stroke-width:0.0174186"
       d="m 87.795912,336.54432 c -0.19476,-0.21452 -0.28998,-0.34071 -0.33658,-0.44605 -0.0341,-0.0771 -0.0347,-0.0861 -0.009,-0.12527 0.0678,-0.10347 0.2802,-0.16036 0.67945,-0.18199 0.1542,-0.008 0.36006,-0.0314 0.45748,-0.0513 1.105994,-0.22538 2.572004,-1.27134 3.296444,-2.35192 0.2453,-0.3659 0.54209,-0.94738 0.66165,-1.29634 0.11439,-0.33386 0.14504,-0.5154 0.13561,-0.80321 -0.007,-0.21294 -0.0146,-0.26307 -0.0601,-0.39536 -0.0939,-0.27302 -0.22789,-0.46343 -0.57987,-0.82394 -0.2029,-0.20782 -0.27854,-0.30825 -0.27854,-0.36984 0,-0.0488 2.4e-4,-0.0488 0.10074,0.002 0.28422,0.14421 0.56873,0.44312 0.73127,0.76828 0.24618,0.49247 0.25789,1.20132 0.0312,1.88917 -0.52968,1.60741 -2.15637,3.08084 -3.866934,3.50258 -0.30741,0.0758 -0.57411,0.109 -0.88501,0.11022 -0.15089,5.9e-4 -0.27434,0.006 -0.27434,0.012 0,0.006 0.0146,0.0533 0.0324,0.10513 0.0493,0.14324 0.15281,0.34045 0.25743,0.49045 0.0518,0.0742 0.0867,0.13499 0.0775,0.13499 -0.009,0 -0.086,-0.0764 -0.17082,-0.16983 z"
       id="path1002"
       inkscape:connector-curvature="0" />
    <path
       style="fill:#66584e;fill-opacity:1;stroke-width:0.0174186"
       d="m 89.480586,337.61918 c -0.19536,-0.0175 -0.34422,-0.0577 -0.49492,-0.13338 -0.12581,-0.0632 -0.471534,-0.29013 -0.491684,-0.32273 -0.0135,-0.0218 -0.0154,-0.0226 0.16529,0.0705 0.707594,0.36459 1.734224,0.3838 2.813684,0.0526 0.88639,-0.27193 1.85632,-0.80766 2.62031,-1.44729 0.2415,-0.2022 0.17975,-0.11771 -0.0781,0.10691 -0.6389,0.55648 -1.18547,0.91483 -1.73885,1.14008 -0.70489,0.28691 -1.51446,0.47903 -2.247,0.53323 -0.26731,0.0198 -0.32879,0.0198 -0.54869,4e-5 z"
       id="path1004"
       inkscape:connector-curvature="0" />
    <path
       style="fill:#66584e;fill-opacity:1;stroke-width:0.0174186"
       d="m 97.190736,331.1348 c -0.1088,-2.7496 -0.19855,-3.39094 -0.52669,-3.76372 -0.23703,-0.26928 -0.78914,-0.6104 -1.2266,-0.75787 -1.04257,-0.35142 -2.33483,-0.32899 -3.86895,0.0672 -1.54367,0.39863 -3.087094,1.16976 -4.567464,2.28202 -0.67541,0.50746 -1.17208,0.94077 -1.80102,1.57126 l -0.43076,0.43182 h -0.11476 -0.11476 l 0.0343,-0.0479 c 0.0621,-0.0869 0.756,-0.77481 1.03833,-1.0294 2.18876,-1.97368 4.714234,-3.26604 7.032014,-3.59848 2.07814,-0.29807 3.7131,0.24351 4.56329,1.5116 l 0.13832,0.20631 -0.009,0.12464 c -0.009,0.12215 -0.0256,0.49046 -0.062,1.3962 -0.01,0.24909 -0.0246,0.83129 -0.0325,1.29379 -0.008,0.46249 -0.0178,0.84438 -0.022,0.84864 -0.004,0.004 -0.0174,-0.23697 -0.0293,-0.53608 z"
       id="path1006"
       inkscape:connector-curvature="0" />
    <path
       style="fill:#66584e;fill-opacity:1;stroke-width:0.02463362"
       d="m 109.1922,364.93559 c 0.0191,-0.23538 0.11557,-0.71934 0.19831,-0.99449 0.49785,-1.65549 1.79389,-2.89868 3.45981,-3.31875 0.60498,-0.15254 1.42467,-0.19451 2.02347,-0.1036 1.32422,0.20103 2.49435,0.78339 3.46902,1.72649 0.36949,0.35752 0.64193,0.68435 0.93658,1.12358 0.21629,0.32243 0.5659,0.97392 0.60752,1.13212 0.0158,0.06 0.0145,0.0597 -0.0479,-0.0123 -0.13687,-0.15779 -0.48395,-0.63001 -0.67895,-0.92376 -0.35884,-0.54058 -0.62657,-0.8587 -1.0207,-1.21283 -0.93472,-0.83986 -2.11102,-1.4625 -3.20789,-1.69802 -0.23043,-0.0495 -0.33464,-0.0572 -0.75974,-0.0564 -0.45179,8.2e-4 -0.51712,0.007 -0.78738,0.0701 -1.56715,0.3679 -3.13392,1.53909 -3.72126,2.78171 -0.1471,0.31121 -0.20528,0.54057 -0.23241,0.9161 -0.0269,0.37246 -0.0918,0.61454 -0.18864,0.70348 l -0.0655,0.0602 z"
       id="path1008"
       inkscape:connector-curvature="0" />
    <path
       style="fill:#66584e;fill-opacity:1;stroke-width:0.02463362"
       d=""
       id="path1010"
       inkscape:connector-curvature="0" />
    <path
       style="fill:#66584e;fill-opacity:1;stroke-width:0.02463362"
       d="m 108.85087,365.12048 c -0.27715,-0.17022 -0.66147,-0.81623 -0.9095,-1.5288 -0.10586,-0.30414 -0.26782,-0.95003 -0.25265,-1.00755 0.0103,-0.0389 0.0112,-0.0389 0.0138,1.2e-4 0.005,0.0731 0.17326,0.60624 0.26527,0.84059 0.10652,0.27131 0.35661,0.77793 0.50121,1.0153 0.0859,0.14102 0.29144,0.44145 0.46491,0.67953 0.0428,0.0587 0.0117,0.059 -0.0831,8.1e-4 z"
       id="path1012"
       inkscape:connector-curvature="0" />
    <path
       style="fill:#66584e;fill-opacity:1;stroke-width:0.02463362"
       d="m 107.56062,359.83287 c -0.004,-0.12157 0.0909,-0.69353 0.16807,-1.0115 0.0859,-0.35405 0.17983,-0.5998 0.35976,-0.94121 0.18058,-0.34261 0.66313,-1.06156 0.69268,-1.03201 0.006,0.006 -0.0683,0.13083 -0.16436,0.27815 -0.49657,0.76153 -0.84353,1.6561 -1.03064,2.6573 -0.0166,0.0889 -0.0237,0.10261 -0.0255,0.0493 z"
       id="path1014"
       inkscape:connector-curvature="0" />
    <path
       style="fill:#66584e;fill-opacity:1;stroke-width:0.02463362"
       d=""
       id="path1018"
       inkscape:connector-curvature="0" />
  </g>
</svg>
