<?xml version="1.0" encoding="UTF-8" standalone="no"?>
<!-- Created with Inkscape (http://www.inkscape.org/) -->

<svg
   xmlns:dc="http://purl.org/dc/elements/1.1/"
   xmlns:cc="http://creativecommons.org/ns#"
   xmlns:rdf="http://www.w3.org/1999/02/22-rdf-syntax-ns#"
   xmlns:svg="http://www.w3.org/2000/svg"
   xmlns="http://www.w3.org/2000/svg"
   xmlns:xlink="http://www.w3.org/1999/xlink"
   xmlns:sodipodi="http://sodipodi.sourceforge.net/DTD/sodipodi-0.dtd"
   xmlns:inkscape="http://www.inkscape.org/namespaces/inkscape"
   width="94.802261mm"
   height="152.62805mm"
   viewBox="0 0 94.802261 152.62805"
   version="1.1"
   id="svg8"
   inkscape:version="0.92.2 (5c3e80d, 2017-08-06)"
   sodipodi:docname="pigeon_403.svg">
  <defs
     id="defs2">
    <linearGradient
       inkscape:collect="always"
       id="linearGradient1349">
      <stop
         style="stop-color:#ea190e;stop-opacity:1;"
         offset="0"
         id="stop1345" />
      <stop
         style="stop-color:#ea190e;stop-opacity:0;"
         offset="1"
         id="stop1347" />
    </linearGradient>
    <linearGradient
       gradientUnits="userSpaceOnUse"
       y2="293.25"
       y1="518.96997"
       x2="629.02002"
       x1="397.59"
       id="b"
       gradientTransform="matrix(0.26458333,0,0,0.26458333,-221.49355,-45.693713)">
      <stop
         id="stop815"
         offset="0"
         stop-color="#e6e6e6" />
      <stop
         id="stop817"
         offset="1"
         stop-opacity="0"
         stop-color="#e6e6e6" />
    </linearGradient>
    <linearGradient
       gradientUnits="userSpaceOnUse"
       y2="508.07001"
       y1="604.03003"
       x2="243.87"
       x1="181.24001"
       id="c"
       gradientTransform="matrix(-0.20268259,0.17007088,0.17007088,0.20268259,97.12824,-65.074151)">
      <stop
         id="stop820"
         offset="0"
         stop-color="#917c6f" />
      <stop
         id="stop822"
         offset="1"
         stop-opacity="0"
         stop-color="#917c6f" />
    </linearGradient>
    <linearGradient
       gradientUnits="userSpaceOnUse"
       y2="10.895"
       y1="-89.110001"
       x2="-242.44"
       x1="-288.89999"
       id="d">
      <stop
         id="stop825"
         offset="0"
         stop-color="#6c5d53" />
      <stop
         id="stop827"
         offset="1"
         stop-opacity="0"
         stop-color="#6c5d53" />
    </linearGradient>
    <linearGradient
       gradientUnits="userSpaceOnUse"
       x2="393.31"
       x1="297.59"
       id="a"
       gradientTransform="matrix(-0.36581816,0.31622741,0.30695787,0.37686517,68.635223,-218.15289)">
      <stop
         id="stop830"
         offset="0"
         stop-color="#808080" />
      <stop
         id="stop832"
         offset="1"
         stop-opacity="0"
         stop-color="#808080" />
    </linearGradient>
    <linearGradient
       gradientUnits="userSpaceOnUse"
       y2="-523.47998"
       y1="-254.78"
       x2="-274.76001"
       x1="-424.26001"
       id="e">
      <stop
         id="stop835"
         offset="0"
         stop-color="#4d4d4d" />
      <stop
         id="stop837"
         offset="1"
         stop-opacity="0"
         stop-color="#4d4d4d" />
    </linearGradient>
    <radialGradient
       inkscape:collect="always"
       xlink:href="#linearGradient1349"
       id="radialGradient1351"
       cx="-134.55952"
       cy="133.71428"
       fx="-134.55952"
       fy="133.71428"
       r="72.514519"
       gradientUnits="userSpaceOnUse"
       gradientTransform="matrix(0.3064373,0.31868427,-0.30837078,0.29652238,235.32512,60.374681)" />
  </defs>
  <sodipodi:namedview
     id="base"
     pagecolor="#ffffff"
     bordercolor="#666666"
     borderopacity="1.0"
     inkscape:pageopacity="0.0"
     inkscape:pageshadow="2"
     inkscape:zoom="0.98994949"
     inkscape:cx="179.86542"
     inkscape:cy="329.88209"
     inkscape:document-units="mm"
     inkscape:current-layer="layer1"
     showgrid="false"
     inkscape:window-width="1920"
     inkscape:window-height="1019"
     inkscape:window-x="-9"
     inkscape:window-y="-9"
     inkscape:window-maximized="1"
     fit-margin-top="0"
     fit-margin-left="0"
     fit-margin-right="0"
     fit-margin-bottom="0" />
  <metadata
     id="metadata5">
    <rdf:RDF>
      <cc:Work
         rdf:about="">
        <dc:format>image/svg+xml</dc:format>
        <dc:type
           rdf:resource="http://purl.org/dc/dcmitype/StillImage" />
        <dc:title></dc:title>
      </cc:Work>
    </rdf:RDF>
  </metadata>
  <g
     inkscape:label="Calque 1"
     inkscape:groupmode="layer"
     id="layer1"
     transform="translate(-81.419234,-35.560933)">
    <path
       id="path848"
       d="m 164.19763,62.443256 c -0.94982,3.391757 -0.11431,21.830211 1.512,27.044876 1.47797,4.739555 0.91856,10.035907 0.74709,14.475778 -1.61408,15.1758 -3.06037,21.52787 -13.65372,34.13737 -3.00575,2.57446 -12.82085,8.16526 -23.81194,13.35602 -9.85481,4.65399 -7.67379,8.41235 -10.80916,11.55719 -12.53552,12.57333 -17.36941,17.80645 -23.307127,20.67939 8.341567,-22.73566 21.499797,-80.86327 36.077907,-97.938113 6.28032,-6.344148 10.18139,-14.032467 11.27886,-17.427718 0.57749,-1.78642 2.29788,-5.887354 1.83617,-9.565502 -0.54646,-4.355493 0.8437,-9.224889 5.60338,-11.216866 4.59627,-1.923688 8.49579,-2.611821 11.56011,-0.668513 2.79596,1.773027 2.80471,4.109841 3.38332,6.784978 1.29861,6.00463 0.70268,4.938336 -0.41699,8.780501 z"
       inkscape:connector-curvature="0"
       style="fill:#b3b3b3;stroke-width:0.26458332"
       sodipodi:nodetypes="ccccccccccccccc" />
    <path
       id="path850"
       d="m 132.27248,83.356576 c 9.71715,-6.13355 19.2081,-0.690715 28.84732,2.694152 0.43139,0.09445 1.86001,0.638758 2.67448,-0.05881 0.0418,-0.03584 0.50131,0.167866 0.66967,-0.786654 0.13196,1.026533 0.61249,2.387079 0.77387,3.435905 -0.12329,1.036143 -2.35807,0.806771 -4.66501,0.845243 -4.92996,-0.13158 -9.65883,-3.467524 -14.2038,-4.99874 -4.32036,-0.741195 -9.79841,-2.065571 -14.09672,-1.131139 z"
       inkscape:connector-curvature="0"
       style="fill:#6c5d53;stroke-width:0.26458332" />
    <path
       id="path854"
       d="m 108.4328,140.45522 c -8.39179,17.8574 -23.202693,39.70536 -23.202693,39.70536 0,0 -5.989162,9.91 -2.951051,7.70957 3.038114,-2.20043 9.206308,-9.81839 11.96666,-13.1813 2.76036,-3.36292 16.860044,-23.56738 16.860044,-23.56738 l -2.67121,-10.66787 z"
       inkscape:connector-curvature="0"
       style="fill:#b3b3b3;stroke-width:0.26458332" />
    <path
       id="path856"
       d="m 108.37445,154.10906 c -8.676673,14.60732 -19.031441,28.87853 -19.031441,28.87853 0,0 -1.148284,4.45264 1.816795,0.91781 2.965074,-3.53484 16.932986,-22.23323 16.932986,-22.23323 l 0.28237,-7.56369 z"
       inkscape:connector-curvature="0"
       style="fill:#999999;stroke-width:0.26458332" />
    <path
       id="path862"
       d="m 150.78177,86.799869 c -2.66532,10.941121 -3.04863,17.031171 -12.97803,25.614541 -9.9294,8.58336 -24.45383,14.80477 -24.45383,14.80477 0,0 21.81644,-2.73564 28.27916,-11.20191 6.46273,-8.46632 10.72061,-30.572695 9.15273,-29.217352 z"
       inkscape:connector-curvature="0"
       style="fill:url(#a);stroke-width:0.48469847" />
    <path
       id="path864"
       d="m 154.49687,132.36635 c -1.88263,5.24083 -1.70465,12.937 -9.34578,14.64138 -7.64117,1.70438 -10.7781,-0.37072 -10.7781,-0.37072 0,0 4.29308,-5.69443 8.64543,-8.82344 4.35234,-3.12903 11.47829,-5.44739 11.47829,-5.44739 z"
       inkscape:connector-curvature="0"
       style="fill:#b3b3b3;fill-rule:evenodd;stroke-width:0.26458332" />
    <path
       id="path866"
       d="m 146.74535,143.08785 c -2.51341,1.51843 -3.42871,3.13813 -2.78616,5.82698 0.63569,2.6611 -4.42238,3.01302 -6.48588,4.74452 -2.34565,1.96824 -4.1385,0.39674 -6.09053,0.22605 -3.49065,-0.30539 -5.17804,0.1581 -5.74697,0.6355 -1.7953,1.50644 3.7309,-3.10319 6.01044,-3.64779 0.35539,-0.0849 7.39296,0.26744 1.91562,-0.21183 -5.07988,-0.44444 0.27731,-1.51411 2.80052,-1.6521 4.40931,-0.24111 3.13469,-1.22958 5.73268,-4.81028 1.04302,-1.43751 2.91557,-0.835 4.65015,-1.11076 z"
       inkscape:connector-curvature="0"
       style="fill:#e9afaf;fill-rule:evenodd;stroke-width:0.26458332" />
    <g
       id="g872"
       transform="matrix(-0.20268259,0.17007088,0.17007088,0.20268259,107.12924,114.999)">
      <path
         id="path868"
         d="m -299.26,-17.64 c 11.469,28.79 56.873,68.691 58.183,70.691 15.082,23.037 37.572,-85.821 93.895,-81.272 -30.359,-4.6198 -47.615,-12.547 -68.11,-21.993 -6.4175,-2.9576 -14.945,-8.6286 -28.22,-24.205 -10.742,-12.604 -25.141,-23.816 -44.188,-19.549 -17.395,3.8964 -33.197,14.572 -37.348,27.642 -3.7876,11.926 3.3693,18.995 8.193,28.146 10.828,20.54 5.0186,12.138 17.595,20.541 z"
         inkscape:connector-curvature="0"
         style="fill:#483e37" />
      <path
         id="path870"
         d="m -299.26,-17.64 c 11.469,28.79 56.873,68.691 58.183,70.691 15.082,23.037 37.572,-85.821 93.895,-81.272 -30.359,-4.6198 -47.615,-12.547 -68.11,-21.993 -6.4175,-2.9576 -14.945,-8.6286 -28.22,-24.205 -10.742,-12.604 -25.141,-23.816 -44.188,-19.549 -17.395,3.8964 -33.197,14.572 -37.348,27.642 -3.7876,11.926 3.3693,18.995 8.193,28.146 10.828,20.54 5.0186,12.138 17.595,20.541 z"
         inkscape:connector-curvature="0"
         style="fill:url(#d)" />
    </g>
    <g
       id="g902"
       transform="matrix(-0.22913588,0.13229166,0.13229166,0.22913588,158.90634,134.6217)">
      <g
         id="g880"
         transform="matrix(-1.0675,0.4978,0.51504,1.1045,-1013.1,-616.94)"
         style="fill-rule:evenodd">
        <path
           id="path874"
           d="m -546.43,568.08 c 0,4.9311 -4.637,8.9286 -10.357,8.9286 -5.72,0 -10.357,-3.9975 -10.357,-8.9286 0,-4.9311 4.637,-8.9286 10.357,-8.9286 5.72,0 10.357,3.9974 10.357,8.9286 z"
           inkscape:connector-curvature="0"
           style="fill:#ffffff" />
        <path
           id="path876"
           d="m -547.5,569.68 c 0,2.86 -2.2786,5.1786 -5.0893,5.1786 -2.8107,0 -5.0893,-2.3185 -5.0893,-5.1786 0,-2.8601 2.2786,-5.1786 5.0893,-5.1786 2.8107,0 5.0893,2.3185 5.0893,5.1786 z"
           transform="matrix(1.1454,0,0,1.1084,79.564,-62.406)"
           inkscape:connector-curvature="0" />
        <path
           id="path878"
           d="m -551.96,566.38 c 0,2.4162 -2.2786,4.375 -5.0893,4.375 -2.8107,0 -5.0893,-1.9588 -5.0893,-4.375 0,-2.4162 2.2786,-4.375 5.0893,-4.375 2.8107,0 5.0893,1.9588 5.0893,4.375 z"
           inkscape:connector-curvature="0"
           style="fill:#ffffff" />
      </g>
      <path
         id="path882"
         d="m -511.07,569.86 c 0,4.3394 -1.6789,7.8572 -3.75,7.8572 -2.0711,0 -3.75,-3.5178 -3.75,-7.8572 0,-4.3394 1.6789,-7.8571 3.75,-7.8571 2.0711,0 3.75,3.5178 3.75,7.8571 z"
         transform="matrix(-1.3361,0.62303,0.51647,1.1076,-1145.4,-560.26)"
         inkscape:connector-curvature="0"
         style="fill:#ffffff;fill-rule:evenodd" />
      <path
         id="path884"
         d="m -512.5,570.31 c 0,2.1204 -0.99937,3.8393 -2.2322,3.8393 -1.23283,0 -2.2321,-1.7189 -2.2321,-3.8393 0,-2.1204 0.99936,-3.8393 2.2321,-3.8393 1.23274,0 2.2322,1.7189 2.2322,3.8393 z"
         transform="matrix(-1.319,0.61505,0.58469,1.2539,-1173.6,-646.98)"
         inkscape:connector-curvature="0"
         style="fill-rule:evenodd" />
      <g
         id="g888"
         transform="matrix(-1.3361,0.62303,0.51647,1.1076,-1144.9,-558.06)">
        <path
           id="path886"
           d="m -512.68,568.34 c 0,1.8245 -0.79949,3.3036 -1.7857,3.3036 -0.98621,0 -1.7857,-1.4791 -1.7857,-3.3036 0,-1.8245 0.79949,-3.3036 1.7857,-3.3036 0.98621,0 1.7857,1.4791 1.7857,3.3036 z"
           inkscape:connector-curvature="0"
           style="fill:#ffffff;fill-rule:evenodd" />
      </g>
      <path
         id="path890"
         d="m -146.78,-227.94 c 5.8851,1.6175 20.904,-9.5494 18.564,-14.566 -0.18401,-0.39463 0.31813,-0.50733 0.0592,-0.17175 -0.9075,1.1763 -2.6633,2.0286 -3.8518,3.0933 -3.0201,2.7055 -8.6144,4.423 -11.002,6.2835 -1.5337,1.195 -3.2688,3.6213 -3.7696,5.361 z"
         inkscape:connector-curvature="0"
         style="fill:#aa4400" />
      <path
         id="path892"
         d="m -157.35,-244.63 c -2.0257,-7.4686 11.319,-14.153 16.035,-12.522 0.84345,0.29186 4.2882,0.91949 3.44,1.9991 -1.5046,1.9154 -8.8127,2.597 -11.708,3.874 -3.5952,1.5858 -6.0533,5.0664 -7.8262,6.8202"
         inkscape:connector-curvature="0"
         style="fill:#ffffff" />
      <path
         id="path894"
         d="m -147.28,-227.22 c 6.0654,-1.6302 11.284,-2.8074 14.242,-6.6412 1.6903,-1.2078 4.7211,-4.4055 5.074,-6.4427 1.6638,3.568 -2.2899,11.365 -3.4191,14.64 -3.1398,5.4422 -3.9865,10.571 -2.231,15.92 -2.0231,0.96723 -2.9092,-0.14475 -5.8246,-3.195 -5.1148,-8.69 -5.8793,-8.4751 -7.8413,-14.281 z"
         inkscape:connector-curvature="0"
         style="fill:#483737" />
      <path
         id="path896"
         d="m -144.02,-254.88 c -10.212,2.8658 -11.66,6.0281 -15.215,14.878 -0.26566,3.9746 0.60882,6.9799 1.7843,10.698 1.7504,4.9489 3.3002,7.9736 6.4964,7.0597 5.0038,-1.4307 1.6585,-4.809 6.1579,-9.5015 3.5803,-3.7339 6.2982,-3.2251 11.231,-6.3902 4.9328,-3.1651 6.3143,-4.3857 6.0233,-7.9974 0.0765,-9.4549 -8.939,-9.53 -16.478,-8.7468 z"
         inkscape:connector-curvature="0"
         style="fill:#ff7f2a" />
      <path
         id="path898"
         d="m -141.66,-248.92 c 1.2093,-0.6355 1.7675,-0.0533 2.2686,0.38342 2.3897,2.0827 -3.6458,7.4192 -4.0698,6.5099 -0.32975,-0.70716 1.8997,-3.5592 2.1042,-4.152 0.0768,-0.22282 -3.735,-0.18417 -0.30304,-2.7413 z"
         inkscape:connector-curvature="0"
         style="fill:#aa4400" />
      <path
         id="path900"
         d="m -154.06,-248.11 c -2.5399,3.4265 -3.3166,7.2538 -2.6538,11.633 0.61023,4.0319 2.9935,10.222 2.9935,10.222 0.12482,-6.0157 -0.0633,-12.444 3.5371,-17.344 3.4908,-4.5247 4.2876,-7.7066 4.2876,-7.7066 0,0 -3.6101,-0.55873 -8.1644,3.1956 z"
         inkscape:connector-curvature="0"
         style="fill:#ffccaa" />
    </g>
    <path
       id="path904"
       d="m 132.27248,83.356576 c 9.71715,-6.13355 19.2081,-0.690715 28.84732,2.694152 0.43139,0.09445 1.86001,0.638758 2.67448,-0.05881 0.0418,-0.03584 0.50131,0.167866 0.66967,-0.786654 0.13196,1.026533 0.61249,2.387079 0.77387,3.435905 -0.12329,1.036143 -2.35807,0.806771 -4.66501,0.845243 -4.92996,-0.13158 -9.65883,-3.467524 -14.2038,-4.99874 -4.32036,-0.741195 -9.79841,-2.065571 -14.09672,-1.131139 z"
       inkscape:connector-curvature="0"
       style="fill:url(#c);stroke-width:0.26458332" />
    <path
       style="fill:url(#radialGradient1351);fill-opacity:1;stroke:#ff0000;stroke-width:0.01435486;stroke-linecap:round;stroke-linejoin:round"
       d="m 153.91853,35.56811 a 22.29577,22.29577 0 0 0 -22.2958,22.295806 22.29577,22.29577 0 0 0 22.2958,22.295798 22.29577,22.29577 0 0 0 22.29579,-22.295798 22.29577,22.29577 0 0 0 -22.29579,-22.295806 z m 0.12855,6.636336 c 3.62498,0.02937 7.24522,1.311708 10.16385,3.856817 6.02555,5.254501 7.1254,14.20415 2.55177,20.76141 l -0.43707,-0.381136 -23.03026,-20.083216 c 3.02874,-2.796461 6.89293,-4.185141 10.75171,-4.153875 z m -12.96223,6.685614 23.0064,20.110393 0.43678,0.381775 c -5.88037,5.416517 -14.89645,5.53384 -20.91575,0.272261 -6.01927,-5.261578 -7.10887,-14.212539 -2.52743,-20.764429 z"
       id="circle1281"
       inkscape:connector-curvature="0" />
  </g>
</svg>
