<?xml version="1.0" encoding="UTF-8" standalone="no"?>
<svg
   xmlns:osb="http://www.openswatchbook.org/uri/2009/osb"
   xmlns:dc="http://purl.org/dc/elements/1.1/"
   xmlns:cc="http://creativecommons.org/ns#"
   xmlns:rdf="http://www.w3.org/1999/02/22-rdf-syntax-ns#"
   xmlns:svg="http://www.w3.org/2000/svg"
   xmlns="http://www.w3.org/2000/svg"
   xmlns:xlink="http://www.w3.org/1999/xlink"
   xmlns:sodipodi="http://sodipodi.sourceforge.net/DTD/sodipodi-0.dtd"
   xmlns:inkscape="http://www.inkscape.org/namespaces/inkscape"
   viewBox="0 0 578.04096 529.22792"
   version="1.1"
   id="svg908"
   sodipodi:docname="pigeon-anon.svg"
   width="578.04095"
   height="529.22791"
   inkscape:version="0.92.1 r15371">
  <metadata
     id="metadata912">
    <rdf:RDF>
      <cc:Work
         rdf:about="">
        <dc:format>image/svg+xml</dc:format>
        <dc:type
           rdf:resource="http://purl.org/dc/dcmitype/StillImage" />
        <dc:title></dc:title>
      </cc:Work>
    </rdf:RDF>
  </metadata>
  <sodipodi:namedview
     pagecolor="#ffffff"
     bordercolor="#666666"
     borderopacity="1"
     objecttolerance="10"
     gridtolerance="10"
     guidetolerance="10"
     inkscape:pageopacity="0"
     inkscape:pageshadow="2"
     inkscape:window-width="1362"
     inkscape:window-height="729"
     id="namedview910"
     showgrid="false"
     fit-margin-top="0"
     fit-margin-left="0"
     fit-margin-right="0"
     fit-margin-bottom="0"
     inkscape:zoom="0.78490088"
     inkscape:cx="107.45239"
     inkscape:cy="210.79607"
     inkscape:window-x="0"
     inkscape:window-y="18"
     inkscape:window-maximized="0"
     inkscape:current-layer="g947" />
  <defs
     id="defs840">
    <linearGradient
       id="linearGradient6362"
       osb:paint="solid">
      <stop
         style="stop-color:#000000;stop-opacity:1;"
         offset="0"
         id="stop6360" />
    </linearGradient>
    <linearGradient
       id="b"
       x1="397.59"
       x2="629.02002"
       y1="518.96997"
       y2="293.25"
       gradientUnits="userSpaceOnUse"
       xlink:href="#e"
       gradientTransform="translate(-19.3962,212.42015)">
      <stop
         stop-color="#e6e6e6"
         offset="0"
         id="stop815" />
      <stop
         stop-color="#e6e6e6"
         stop-opacity="0"
         offset="1"
         id="stop817" />
    </linearGradient>
    <linearGradient
       id="c"
       x1="181.24001"
       x2="243.87"
       y1="604.03003"
       y2="508.07001"
       gradientUnits="userSpaceOnUse"
       gradientTransform="translate(-128.67867,161.80387)">
      <stop
         stop-color="#917c6f"
         offset="0"
         id="stop820" />
      <stop
         stop-color="#917c6f"
         stop-opacity="0"
         offset="1"
         id="stop822" />
    </linearGradient>
    <linearGradient
       id="d"
       x1="-288.89999"
       x2="-242.44"
       y1="-89.110001"
       y2="10.895"
       gradientUnits="userSpaceOnUse">
      <stop
         stop-color="#6c5d53"
         offset="0"
         id="stop825" />
      <stop
         stop-color="#6c5d53"
         stop-opacity="0"
         offset="1"
         id="stop827" />
    </linearGradient>
    <linearGradient
       id="a"
       x1="297.59"
       x2="393.31"
       gradientUnits="userSpaceOnUse"
       gradientTransform="matrix(1,0,0,1.2645489,0,-163.79056)">
      <stop
         stop-color="#808080"
         offset="0"
         id="stop830" />
      <stop
         stop-color="#808080"
         stop-opacity="0"
         offset="1"
         id="stop832" />
    </linearGradient>
    <linearGradient
       id="e"
       x1="-424.26001"
       x2="-274.76001"
       y1="-254.78"
       y2="-523.47998"
       gradientUnits="userSpaceOnUse">
      <stop
         stop-color="#4d4d4d"
         offset="0"
         id="stop835" />
      <stop
         stop-color="#4d4d4d"
         stop-opacity="0"
         offset="1"
         id="stop837" />
    </linearGradient>
    <filter
       inkscape:collect="always"
       style="color-interpolation-filters:sRGB"
       id="filter6446"
       x="-0.013391815"
       width="1.0267836"
       y="-0.010870252"
       height="1.0217405">
      <feGaussianBlur
         inkscape:collect="always"
         stdDeviation="0.3097563"
         id="feGaussianBlur6448" />
    </filter>
  </defs>
  <g
     id="g947"
     transform="translate(-82.406243,-207.74923)">
    <g
       id="g846"
       transform="translate(667.12,777.99)"
       style="fill:#b3b3b3;fill-opacity:1">
      <path
         id="path842"
         d="m -329.43,-542.89 c -14.493,-0.0673 -43.801,24.034 -64.844,65.875 -1.9872,3.1284 -3.8148,6.5029 -5.5938,10.625 -29.141,67.524 -28.571,112.88 -50,128.59 -21.429,15.71 -14.281,47.125 -4.2812,87.125 l 92.844,37.156 64.312,-40 10,-117.16 c 0,0 -12.871,-29.978 -17.156,-41.406 -0.66135,-1.7636 -2.1773,-6.0448 -4.0312,-11.219 5.5264,-8.1608 8.6242,-16.486 7.625,-24.156 -1.1071,-5.1777 -5.9904,-6.9979 -12.844,-6 6.0808,-8.5716 9.6145,-17.362 8.5625,-25.438 -1.106,-5.1722 -6.0017,-6.9909 -12.844,-6 6.0808,-8.5716 9.6145,-17.362 8.5625,-25.438 -1.3304,-6.2216 -8.1495,-7.5754 -17.25,-5.0312 4.082,-6.9887 6.2588,-13.987 5.4062,-20.531 -1.0068,-4.7082 -4.0433,-6.9794 -8.4688,-7 z"
         inkscape:connector-curvature="0"
         style="fill:#b3b3b3;fill-opacity:1" />
      <path
         id="path844"
         d="m -329.43,-542.89 c -14.493,-0.0673 -43.801,24.034 -64.844,65.875 -1.9872,3.1284 -3.8148,6.5029 -5.5938,10.625 -29.141,67.524 -28.571,112.88 -50,128.59 -21.429,15.71 -14.281,47.125 -4.2812,87.125 l 92.844,37.156 64.312,-40 10,-117.16 c 0,0 -12.871,-29.978 -17.156,-41.406 -0.66135,-1.7636 -2.1773,-6.0448 -4.0312,-11.219 5.5264,-8.1608 8.6242,-16.486 7.625,-24.156 -1.1071,-5.1777 -5.9904,-6.9979 -12.844,-6 6.0808,-8.5716 9.6145,-17.362 8.5625,-25.438 -1.106,-5.1722 -6.0017,-6.9909 -12.844,-6 6.0808,-8.5716 9.6145,-17.362 8.5625,-25.438 -1.3304,-6.2216 -8.1495,-7.5754 -17.25,-5.0312 4.082,-6.9887 6.2588,-13.987 5.4062,-20.531 -1.0068,-4.7082 -4.0433,-6.9794 -8.4688,-7 z"
         inkscape:connector-curvature="0"
         style="fill:#b3b3b3;fill-opacity:1" />
    </g>
    <path
       id="path848"
       d="m 115.61,532.14 c 10.99,7.5126 53.366,62.927 61.326,81.976 7.2353,17.313 16.568,35.147 27.851,47.585 39.221,43.363 68.957,61.407 127.62,61.808 14.957,0.15165 56.957,-7.5066 101.39,-19.18 39.839,-10.467 42.655,5.7132 59.373,7.2012 66.84,5.9492 93.549,9.357 117.72,3.2497 -79.386,-45.561 -258.7,-181.89 -342.39,-195.91 -33.596,-3.1105 -63.569,-15.893 -74.995,-23.057 -6.012,-3.7692 -20.956,-11.463 -28.555,-23.234 -8.9992,-13.938 -24.854,-24.659 -43.474,-18.863 -17.981,5.5967 -30.943,13.078 -35.094,26.149 -3.7876,11.926 1.8642,18.713 6.688,27.864 10.828,20.54 9.9629,16.005 22.539,24.409 z"
       inkscape:connector-curvature="0"
       style="fill:#b3b3b3" />
    <path
       id="path852"
       d="m 267.39,519.72 c 19.121,-6.2197 31.868,0 39.834,-29.543 7.966,-29.543 1.5934,-55.977 1.5934,-55.977 l -4.3532,-12.825 c 0,0 -2.0203,-2.7238 4.3532,-15.163 6.3735,-12.4392 124.28,-110.4 141.81,-124.39 17.53,-13.99 46.208,-24.879 46.208,-24.879 25.834,-0.59412 42.539,17.016 28.681,74.636 1.9783,10.884 -9.5603,97.96 -20.714,107.29 -11.1537,9.33 -60.495,62.741 -58.901,79.846 1.594,17.105 15.838,86.303 -17.623,72.309 -33.461,-13.994 -65.87,-25.276 -72.243,-23.721 -6.373,1.555 -5.7903,20.838 -12.164,20.838 -6.3737,0 -60.548,-7.7746 -70.109,-23.324 -9.561,-15.5494 -3.1868,-43.538 -6.3735,-45.093 z"
       inkscape:connector-curvature="0"
       style="fill:#b3b3b3" />
    <path
       id="path854"
       d="m 466.59,622.53 c 67.68,31.315 163.64,58.589 163.64,58.589 0,0 41.416,14.142 27.274,15.152 -14.142,1.01 -50.508,-6.0609 -66.67,-9.0914 -16.162,-3.0305 -106.07,-27.274 -106.07,-27.274 l -18.183,-37.376 z"
       inkscape:connector-curvature="0"
       style="fill:#b3b3b3" />
    <path
       id="path856"
       d="m 499.93,661.92 c 60.609,21.213 125.26,37.376 125.26,37.376 0,0 14.142,10.102 -3.0304,7.0711 -17.1724,-3.0309 -103.04,-23.234 -103.04,-23.234 l -19.193,-21.213 z"
       inkscape:connector-curvature="0"
       style="fill:#b3b3b3;fill-opacity:1;" />
    <path
       id="path858"
       d="m 341.9868,569.30746 c 89.405,36.159 96.418,43.327 125.45,44.358 29.032,1.031 21.708,-3.6651 6.9834,-14.697 -14.7246,-11.0319 -29.942,-19.064 -29.942,-19.064 0,0 18.821,6.1569 20.558,-0.94231 1.0671,-4.3621 -10.066,-16.888 -17.588,-21.535 -6.5095,-4.0215 18.539,-1.9245 17.567,-4.8555 -1.1476,-3.4584 -35.436,-35.54 -35.436,-35.54 0,0 4.6785,3.2564 0.77672,19.207 -4.0499,16.556 -12.567,22.414 -25.892,28.701 -13.039,6.1522 -59.268,4.1187 -62.475,4.3684 z"
       inkscape:connector-curvature="0"
       style="fill:#b3b3b3;fill-opacity:1" />
    <path
       id="path860"
       d="m 585.52,207.75 c -36.347,-0.27191 -141.32,71.798 -157.91,92.906 7.9234,0.40916 20.327,-2.154 34.875,-6.75 -2.7534,1.8017 -4.9908,3.408 -6.4688,4.75 5.5369,1.0046 14.074,0.67015 24.25,-0.6875 -12.447,4.2143 -22.188,8.2195 -26.656,11.156 4.8909,1.7039 12.482,2.6692 21.656,3 -8.054,2.0788 -14.364,4.2101 -17.844,6.1562 7.0712,4.5317 20.786,8.1252 37.156,10.406 -13.32,1.0903 -23.966,2.7306 -29.094,4.6562 7.6389,5.64 24.314,11.11 43.875,15.219 -24.51,0.54803 -46.278,2.8968 -54.375,5.9375 7.3004,5.3901 22.815,10.646 41.25,14.688 -25.554,0.5127 -48.588,3.352 -56.969,7.0625 12.12,10.55 46.872,20.667 80.031,24.5 -36.999,-2.4335 -80.641,0.58156 -92.906,5.1875 4.5822,3.3832 12.441,6.7071 22.188,9.7188 -13.583,-0.22695 -24.523,0.37586 -29.875,1.8125 6.986,6.2898 22.775,13.273 41.594,19.219 -22.134,-2.9288 -41.495,-3.5666 -49.312,-1.4688 8.1792,9.8033 29.438,21.608 53.406,30.938 -30.216,-4.6535 -60.278,-6.2649 -70.531,-4 9.4545,9.3125 36.355,20.826 64.75,28.844 -33.388,-3.9283 -69.093,-3.1852 -80.406,0.96875 8.0482,8.7016 28.303,18.106 51.375,25.062 -26.433,-3.8948 -51.001,-5.1932 -60.094,-3.2188 20.601,21.453 125.64,54.913 145.59,35.375 -1.6241,-8.85 -17.723,-16.497 -38.781,-22.469 22.357,2.3164 41.542,0.2933 48.75,-9.0625 -1.3767,-7.4692 -10.439,-13.379 -23.5,-17.844 17.647,1.9798 32.124,0.9504 38.281,-5 -0.95906,-4.7729 -6.4731,-9.1402 -14.812,-13.031 14.72,1.2864 26.538,-0.46831 31.938,-6.8125 -1.6746,-10.148 -17.197,-18.778 -37.625,-25.469 21.561,2.3832 39.814,1.2312 46.625,-5.9688 -1.5624,-6.299 -11.14,-11.506 -24.75,-15.656 16.382,-0.77589 29.349,-3.8624 34.312,-10.25 -2.912,-8.2283 -20.064,-13.095 -41.844,-15.594 25.523,1.4812 47.793,-1.541 54.688,-12 -1.7711,-5.9003 -8.8043,-10.327 -18.938,-13.562 16.545,-0.74834 29.658,-3.8489 34.656,-10.281 -1.7231,-4.869 -8.432,-8.5577 -18.125,-11.281 13.675,-1.1832 24.278,-4.2726 28.656,-9.9062 -3.0359,-8.5785 -21.522,-13.51 -44.625,-15.906 18.112,-2.6904 32.363,-7.8419 36.938,-16.062 -3.5653,-8.145 -19.26,-11.499 -39.312,-11.969 17.872,-4.9679 31.589,-11.417 35.156,-18.906 -5.4558,-7.3441 -27.274,-6.5103 -52.719,-2.0938 25.19,-9.2943 46.038,-20.691 49.156,-31.188 -6.3307,-6.2142 -26.669,-2.4642 -50.188,5.3438 24.698,-15.076 43.53,-31.197 45.406,-43.938 -2.1169,-1.7126 -5.1462,-2.5031 -8.9062,-2.5312 z"
       inkscape:connector-curvature="0"
       style="fill:#b3b3b3;fill-opacity:1" />
    <path
       id="path864"
       d="m 313.57,711.02 c 18.183,10.6 36.365,33.315 62.629,19.686 26.264,-13.629 30.305,-27.258 30.305,-27.258 0,0 -26.264,-6.0572 -46.467,-4.5429 -20.203,1.5143 -46.467,12.114 -46.467,12.114 z"
       inkscape:connector-curvature="0"
       style="fill:#b3b3b3;fill-rule:evenodd" />
    <path
       id="path866"
       d="m 362.06,723.23 c 10.966,-1.7097 17.551,0.75595 22.223,10.102 4.6245,9.249 20.124,-2.0203 30.305,-2.0203 11.573,0 12.946,-8.9055 18.183,-14.142 9.3645,-9.3645 15.376,-12.122 18.183,-12.122 8.8577,0 -18.341,0.0794 -26.264,4.0406 -1.2352,0.61757 -20.755,18.735 -6.0609,4.0406 13.628,-13.628 -4.4813,-3.7101 -12.122,2.0203 -13.352,10.014 -12.063,4.0554 -28.284,0 -6.5122,-1.6281 -10.47,4.6656 -16.162,8.0812 z"
       inkscape:connector-curvature="0"
       style="fill:#b3b3bf;fill-rule:evenodd;fill-opacity:0.94117647" />
    <g
       id="g902"
       transform="translate(258.03,754.8)"
       style="fill:#b3b3b3;fill-opacity:1;stroke:none;stroke-opacity:1;filter:url(#filter6446)">
      <g
         id="g880"
         transform="matrix(-1.0675,0.4978,0.51504,1.1045,-1013.1,-616.94)"
         style="fill-rule:evenodd;fill:#b3b3b3;fill-opacity:1;stroke:none;stroke-opacity:1">
        <path
           id="path874"
           d="m -546.43,568.08 c 0,4.9311 -4.637,8.9286 -10.357,8.9286 -5.72,0 -10.357,-3.9975 -10.357,-8.9286 0,-4.9311 4.637,-8.9286 10.357,-8.9286 5.72,0 10.357,3.9974 10.357,8.9286 z"
           inkscape:connector-curvature="0"
           style="fill:#b3b3b3;fill-opacity:1;stroke:none;stroke-opacity:1" />
        <path
           id="path876"
           d="m -547.5,569.68 c 0,2.86 -2.2786,5.1786 -5.0893,5.1786 -2.8107,0 -5.0893,-2.3185 -5.0893,-5.1786 0,-2.8601 2.2786,-5.1786 5.0893,-5.1786 2.8107,0 5.0893,2.3185 5.0893,5.1786 z"
           transform="matrix(1.1454,0,0,1.1084,79.564,-62.406)"
           inkscape:connector-curvature="0"
           style="fill:#b3b3b3;fill-opacity:1;stroke:none;stroke-opacity:1" />
        <path
           id="path878"
           d="m -551.96,566.38 c 0,2.4162 -2.2786,4.375 -5.0893,4.375 -2.8107,0 -5.0893,-1.9588 -5.0893,-4.375 0,-2.4162 2.2786,-4.375 5.0893,-4.375 2.8107,0 5.0893,1.9588 5.0893,4.375 z"
           inkscape:connector-curvature="0"
           style="fill:#b3b3b3;fill-opacity:1;stroke:none;stroke-opacity:1" />
      </g>
      <path
         id="path882"
         d="m -511.07,569.86 c 0,4.3394 -1.6789,7.8572 -3.75,7.8572 -2.0711,0 -3.75,-3.5178 -3.75,-7.8572 0,-4.3394 1.6789,-7.8571 3.75,-7.8571 2.0711,0 3.75,3.5178 3.75,7.8571 z"
         transform="matrix(-1.3361,0.62303,0.51647,1.1076,-1145.4,-560.26)"
         inkscape:connector-curvature="0"
         style="fill:#b3b3b3;fill-rule:evenodd;fill-opacity:1;stroke:none;stroke-opacity:1" />
      <path
         id="path884"
         d="m -512.5,570.31 c 0,2.1204 -0.99937,3.8393 -2.2322,3.8393 -1.23283,0 -2.2321,-1.7189 -2.2321,-3.8393 0,-2.1204 0.99936,-3.8393 2.2321,-3.8393 1.23274,0 2.2322,1.7189 2.2322,3.8393 z"
         transform="matrix(-1.319,0.61505,0.58469,1.2539,-1173.6,-646.98)"
         inkscape:connector-curvature="0"
         style="fill-rule:evenodd;fill:#b3b3b3;fill-opacity:1;stroke:none;stroke-opacity:1" />
      <g
         id="g888"
         transform="matrix(-1.3361,0.62303,0.51647,1.1076,-1144.9,-558.06)"
         style="fill:#b3b3b3;fill-opacity:1;stroke:none;stroke-opacity:1">
        <path
           id="path886"
           d="m -512.68,568.34 c 0,1.8245 -0.79949,3.3036 -1.7857,3.3036 -0.98621,0 -1.7857,-1.4791 -1.7857,-3.3036 0,-1.8245 0.79949,-3.3036 1.7857,-3.3036 0.98621,0 1.7857,1.4791 1.7857,3.3036 z"
           inkscape:connector-curvature="0"
           style="fill:#b3b3b3;fill-rule:evenodd;fill-opacity:1;stroke:none;stroke-opacity:1" />
      </g>
      <path
         id="path890"
         d="m -146.78,-227.94 c 5.8851,1.6175 20.904,-9.5494 18.564,-14.566 -0.18401,-0.39463 0.31813,-0.50733 0.0592,-0.17175 -0.9075,1.1763 -2.6633,2.0286 -3.8518,3.0933 -3.0201,2.7055 -8.6144,4.423 -11.002,6.2835 -1.5337,1.195 -3.2688,3.6213 -3.7696,5.361 z"
         inkscape:connector-curvature="0"
         style="fill:#b3b3b3;fill-opacity:1;stroke:none;stroke-opacity:1" />
      <path
         id="path892"
         d="m -157.35,-244.63 c -2.0257,-7.4686 11.319,-14.153 16.035,-12.522 0.84345,0.29186 4.2882,0.91949 3.44,1.9991 -1.5046,1.9154 -8.8127,2.597 -11.708,3.874 -3.5952,1.5858 -6.0533,5.0664 -7.8262,6.8202"
         inkscape:connector-curvature="0"
         style="fill:#b3b3b3;fill-opacity:1;stroke:none;stroke-opacity:1" />
      <path
         id="path894"
         d="m -147.28,-227.22 c 6.0654,-1.6302 11.284,-2.8074 14.242,-6.6412 1.6903,-1.2078 4.7211,-4.4055 5.074,-6.4427 1.6638,3.568 -2.2899,11.365 -3.4191,14.64 -3.1398,5.4422 -3.9865,10.571 -2.231,15.92 -2.0231,0.96723 -2.9092,-0.14475 -5.8246,-3.195 -5.1148,-8.69 -5.8793,-8.4751 -7.8413,-14.281 z"
         inkscape:connector-curvature="0"
         style="fill:#b3b3b3;fill-opacity:1;stroke:none;stroke-opacity:1" />
      <path
         id="path896"
         d="m -144.02,-254.88 c -10.212,2.8658 -11.66,6.0281 -15.215,14.878 -0.26566,3.9746 0.60882,6.9799 1.7843,10.698 1.7504,4.9489 3.3002,7.9736 6.4964,7.0597 5.0038,-1.4307 1.6585,-4.809 6.1579,-9.5015 3.5803,-3.7339 6.2982,-3.2251 11.231,-6.3902 4.9328,-3.1651 6.3143,-4.3857 6.0233,-7.9974 0.0765,-9.4549 -8.939,-9.53 -16.478,-8.7468 z"
         inkscape:connector-curvature="0"
         style="fill:#b3b3b3;fill-opacity:1;stroke:none;stroke-opacity:1" />
      <path
         id="path898"
         d="m -141.66,-248.92 c 1.2093,-0.6355 1.7675,-0.0533 2.2686,0.38342 2.3897,2.0827 -3.6458,7.4192 -4.0698,6.5099 -0.32975,-0.70716 1.8997,-3.5592 2.1042,-4.152 0.0768,-0.22282 -3.735,-0.18417 -0.30304,-2.7413 z"
         inkscape:connector-curvature="0"
         style="fill:#b3b3b3;fill-opacity:1;stroke:none;stroke-opacity:1" />
      <path
         id="path900"
         d="m -154.06,-248.11 c -2.5399,3.4265 -3.3166,7.2538 -2.6538,11.633 0.61023,4.0319 2.9935,10.222 2.9935,10.222 0.12482,-6.0157 -0.0633,-12.444 3.5371,-17.344 3.4908,-4.5247 4.2876,-7.7066 4.2876,-7.7066 0,0 -3.6101,-0.55873 -8.1644,3.1956 z"
         inkscape:connector-curvature="0"
         style="fill:#b3b3b3;fill-opacity:1;stroke:none;stroke-opacity:1" />
    </g>
  </g>
</svg>
